<?xml version="1.0" encoding="utf-8"?>
<!-- Generator: Adobe Illustrator 25.1.0, SVG Export Plug-In . SVG Version: 6.00 Build 0)  -->
<svg version="1.1" id="图层_1" xmlns="http://www.w3.org/2000/svg" xmlns:xlink="http://www.w3.org/1999/xlink" x="0px" y="0px"
	 viewBox="0 0 28 28" style="enable-background:new 0 0 28 28;" xml:space="preserve">
<style type="text/css">
	.st0{fill:none;stroke:#000000;stroke-width:1.8;stroke-miterlimit:10;}
</style>
<path class="st0" d="M15.39,3.93c0-0.85-0.82-1.51-1.65-1.61c-0.83-0.1-1.64,0.21-2.42,0.51C10.41,3.19,9.49,3.54,8.58,3.9
	c-0.53,0.21-1.1,0.44-1.43,0.92c-0.28,0.4-0.34,0.91-0.38,1.4c-0.13,1.5-0.12,3.07,0.56,4.41c0.57,1.13,1.56,1.98,2.65,2.59
	c3.55,1.98,8,1.47,11.71-0.17c1.02-0.45,2.08-1.07,2.45-2.14c0.05-0.15,0.09-0.31,0.01-0.45c-0.09-0.18-0.32-0.22-0.51-0.24
	c-2.41-0.24-4.84,0.34-7.15,1.09c-1.99,0.65-3.99,1.46-5.55,2.89s-2.62,3.58-2.27,5.69c0.12,0.76,0.43,1.5,0.96,2.05
	c0.95,0.98,2.43,1.17,3.78,1.22c2.94,0.09,5.98-0.29,8.51-1.82c0.67-0.41,1.33-0.94,1.6-1.69c0.17-0.48,0.15-1,0.11-1.51
	c-0.5-5.41-4.88-10.2-10.13-11.09c-0.83-0.14-1.68-0.19-2.5,0C10,7.26,9.13,7.81,8.3,8.39c-2.44,1.7-4.67,3.72-6.62,5.98
	c-0.44,0.51-0.88,1.21-0.57,1.81c0.15,0.29,0.45,0.46,0.74,0.6c2.42,1.2,5.17,1.49,7.85,1.57c1.92,0.06,3.85,0.02,5.77-0.12
	c1.27-0.09,2.66-0.29,3.52-1.24c0.82-0.9,0.95-2.23,0.96-3.45c0.01-1.12-0.04-2.24-0.16-3.36c-0.09-0.8-0.22-1.64-0.69-2.29
	c-0.98-1.35-3.1-1.31-4.45-0.34c-1.34,0.97-2.07,2.59-2.64,4.17c-1.18,3.27-1.96,6.76-1.71,10.24c0.05,0.64,0.18,1.37,0.71,1.71
	c0.75,0.48,1.71-0.13,2.36-0.75c4.66-4.45,7.28-10.75,8.51-17.14c0.08-0.44,0.15-0.95-0.15-1.27c-0.18-0.2-0.44-0.28-0.7-0.35
	c-1.54-0.43-3.17-0.76-4.72-0.39c-1.18,0.28-2.24,0.94-3.25,1.64c-2.27,1.58-4.39,3.39-6.31,5.4c-0.21,0.22-0.42,0.45-0.48,0.74
	c-0.13,0.59,0.37,1.12,0.82,1.51c2.17,1.88,4.37,3.78,6.9,5.12c1.74,0.92,3.61,1.57,5.35,2.51c2.81,1.52,5.21,3.77,8.09,5.14"/>
</svg>
