<?xml version="1.0" standalone="no"?>
 <!DOCTYPE svg PUBLIC "-//W3C//DTD SVG 1.1//EN" 
 "http://www.w3.org/Graphics/SVG/1.1/DTD/svg11.dtd"> 
<svg
  xmlns:svg="http://www.w3.org/2000/svg"
  xmlns="http://www.w3.org/2000/svg"
  xmlns:xlink="http://www.w3.org/1999/xlink"
  version="1.1"
  width="29.700220cm" height="21.000720cm" viewBox="0 0 116930 82680">
<title>SVG Picture created as Tiny44_ghost-F_Cu.svg date 2021/11/14 14:50:36 </title>
  <desc>Picture generated by PCBNEW </desc>
<g style="fill:#000000; fill-opacity:1;stroke:#000000; stroke-opacity:1;
stroke-linecap:round; stroke-linejoin:round;"
 transform="translate(0 0) scale(1 1)">
</g>
<g style="fill:#000000; fill-opacity:0.0; 
stroke:#000000; stroke-width:-0.000393701; stroke-opacity:1; 
stroke-linecap:round; stroke-linejoin:round;">
</g>
<g style="fill:#000000; fill-opacity:0.0; 
stroke:#000000; stroke-width:39.3701; stroke-opacity:1; 
stroke-linecap:round; stroke-linejoin:round;">
</g>
<g style="fill:#000000; fill-opacity:0.0; 
stroke:#000000; stroke-width:59.0551; stroke-opacity:1; 
stroke-linecap:round; stroke-linejoin:round;">
<rect x="69685.9" y="65357.2" width="42519.7" height="12598.4" rx="0" />
</g>
<g style="fill:#000000; fill-opacity:0.0; 
stroke:#000000; stroke-width:39.3701; stroke-opacity:1; 
stroke-linecap:round; stroke-linejoin:round;">
</g>
<g style="fill:#000000; fill-opacity:0.0; 
stroke:#000000; stroke-width:59.0551; stroke-opacity:1; 
stroke-linecap:round; stroke-linejoin:round;">
<rect x="3937.01" y="3937.01" width="109056" height="74806" rx="0" />
</g>
<g style="fill:#000000; fill-opacity:0.0; 
stroke:#000000; stroke-width:39.3701; stroke-opacity:1; 
stroke-linecap:round; stroke-linejoin:round;">
</g>
<g style="fill:#000000; fill-opacity:0.0; 
stroke:#000000; stroke-width:59.0551; stroke-opacity:1; 
stroke-linecap:round; stroke-linejoin:round;">
<rect x="4724.41" y="4724.41" width="107481" height="73231.2" rx="0" />
</g>
<g style="fill:#000000; fill-opacity:0.0; 
stroke:#000000; stroke-width:39.3701; stroke-opacity:1; 
stroke-linecap:round; stroke-linejoin:round;">
</g>
<g style="fill:#000000; fill-opacity:0.0; 
stroke:#000000; stroke-width:59.0551; stroke-opacity:1; 
stroke-linecap:round; stroke-linejoin:round;">
<path d="M23622 4724
L23622 3937
" />
</g>
<g style="fill:#000000; fill-opacity:0.0; 
stroke:#000000; stroke-width:39.3701; stroke-opacity:1; 
stroke-linecap:round; stroke-linejoin:round;">
</g>
<g style="fill:#000000; fill-opacity:0.0; 
stroke:#000000; stroke-width:59.0551; stroke-opacity:1; 
stroke-linecap:round; stroke-linejoin:round;">
<path d="M43307 4724
L43307 3937
" />
</g>
<g style="fill:#000000; fill-opacity:0.0; 
stroke:#000000; stroke-width:39.3701; stroke-opacity:1; 
stroke-linecap:round; stroke-linejoin:round;">
</g>
<g style="fill:#000000; fill-opacity:0.0; 
stroke:#000000; stroke-width:59.0551; stroke-opacity:1; 
stroke-linecap:round; stroke-linejoin:round;">
<path d="M62992 4724
L62992 3937
" />
</g>
<g style="fill:#000000; fill-opacity:0.0; 
stroke:#000000; stroke-width:39.3701; stroke-opacity:1; 
stroke-linecap:round; stroke-linejoin:round;">
</g>
<g style="fill:#000000; fill-opacity:0.0; 
stroke:#000000; stroke-width:59.0551; stroke-opacity:1; 
stroke-linecap:round; stroke-linejoin:round;">
<path d="M82677 4724
L82677 3937
" />
</g>
<g style="fill:#000000; fill-opacity:0.0; 
stroke:#000000; stroke-width:39.3701; stroke-opacity:1; 
stroke-linecap:round; stroke-linejoin:round;">
</g>
<g style="fill:#000000; fill-opacity:0.0; 
stroke:#000000; stroke-width:59.0551; stroke-opacity:1; 
stroke-linecap:round; stroke-linejoin:round;">
<path d="M102362 4724
L102362 3937
" />
</g>
<g style="fill:#000000; fill-opacity:0.0; 
stroke:#000000; stroke-width:39.3701; stroke-opacity:1; 
stroke-linecap:round; stroke-linejoin:round;">
</g>
<g style="fill:#000000; fill-opacity:0.0; 
stroke:#000000; stroke-width:59.0551; stroke-opacity:1; 
stroke-linecap:round; stroke-linejoin:round;">
<text x="13779.5" y="4586.61"
textLength="487.439" font-size="682.415" lengthAdjust="spacingAndGlyphs"
text-anchor="start" opacity="0">1</text>
<path d="M14199 4562
L13906 4562
" />
<path d="M14052 4562
L14052 4050
L14004 4123
L13955 4172
L13906 4196
" />
</g>
<g style="fill:#000000; fill-opacity:0.0; 
stroke:#000000; stroke-width:39.3701; stroke-opacity:1; 
stroke-linecap:round; stroke-linejoin:round;">
</g>
<g style="fill:#000000; fill-opacity:0.0; 
stroke:#000000; stroke-width:59.0551; stroke-opacity:1; 
stroke-linecap:round; stroke-linejoin:round;">
<text x="33464.6" y="4586.61"
textLength="546.494" font-size="682.415" lengthAdjust="spacingAndGlyphs"
text-anchor="start" opacity="0">2</text>
<path d="M33591 4099
L33615 4074
L33664 4050
L33786 4050
L33835 4074
L33859 4099
L33884 4147
L33884 4196
L33859 4269
L33567 4562
L33884 4562
" />
</g>
<g style="fill:#000000; fill-opacity:0.0; 
stroke:#000000; stroke-width:39.3701; stroke-opacity:1; 
stroke-linecap:round; stroke-linejoin:round;">
</g>
<g style="fill:#000000; fill-opacity:0.0; 
stroke:#000000; stroke-width:59.0551; stroke-opacity:1; 
stroke-linecap:round; stroke-linejoin:round;">
<text x="53149.6" y="4586.61"
textLength="546.494" font-size="682.415" lengthAdjust="spacingAndGlyphs"
text-anchor="start" opacity="0">3</text>
<path d="M53252 4050
L53569 4050
L53398 4245
L53471 4245
L53520 4269
L53544 4294
L53569 4342
L53569 4464
L53544 4513
L53520 4537
L53471 4562
L53325 4562
L53276 4537
L53252 4513
" />
</g>
<g style="fill:#000000; fill-opacity:0.0; 
stroke:#000000; stroke-width:39.3701; stroke-opacity:1; 
stroke-linecap:round; stroke-linejoin:round;">
</g>
<g style="fill:#000000; fill-opacity:0.0; 
stroke:#000000; stroke-width:59.0551; stroke-opacity:1; 
stroke-linecap:round; stroke-linejoin:round;">
<text x="72834.6" y="4586.61"
textLength="546.494" font-size="682.415" lengthAdjust="spacingAndGlyphs"
text-anchor="start" opacity="0">4</text>
<path d="M73205 4221
L73205 4562
" />
<path d="M73083 4026
L72961 4391
L73278 4391
" />
</g>
<g style="fill:#000000; fill-opacity:0.0; 
stroke:#000000; stroke-width:39.3701; stroke-opacity:1; 
stroke-linecap:round; stroke-linejoin:round;">
</g>
<g style="fill:#000000; fill-opacity:0.0; 
stroke:#000000; stroke-width:59.0551; stroke-opacity:1; 
stroke-linecap:round; stroke-linejoin:round;">
<text x="92519.7" y="4586.61"
textLength="546.494" font-size="682.415" lengthAdjust="spacingAndGlyphs"
text-anchor="start" opacity="0">5</text>
<path d="M92914 4050
L92671 4050
L92646 4294
L92671 4269
L92719 4245
L92841 4245
L92890 4269
L92914 4294
L92939 4342
L92939 4464
L92914 4513
L92890 4537
L92841 4562
L92719 4562
L92671 4537
L92646 4513
" />
</g>
<g style="fill:#000000; fill-opacity:0.0; 
stroke:#000000; stroke-width:39.3701; stroke-opacity:1; 
stroke-linecap:round; stroke-linejoin:round;">
</g>
<g style="fill:#000000; fill-opacity:0.0; 
stroke:#000000; stroke-width:59.0551; stroke-opacity:1; 
stroke-linecap:round; stroke-linejoin:round;">
<text x="112205" y="4586.61"
textLength="546.494" font-size="682.415" lengthAdjust="spacingAndGlyphs"
text-anchor="start" opacity="0">6</text>
<path d="M112575 4050
L112477 4050
L112429 4074
L112404 4099
L112356 4172
L112331 4269
L112331 4464
L112356 4513
L112380 4537
L112429 4562
L112526 4562
L112575 4537
L112599 4513
L112624 4464
L112624 4342
L112599 4294
L112575 4269
L112526 4245
L112429 4245
L112380 4269
L112356 4294
L112331 4342
" />
</g>
<g style="fill:#000000; fill-opacity:0.0; 
stroke:#000000; stroke-width:39.3701; stroke-opacity:1; 
stroke-linecap:round; stroke-linejoin:round;">
</g>
<g style="fill:#000000; fill-opacity:0.0; 
stroke:#000000; stroke-width:59.0551; stroke-opacity:1; 
stroke-linecap:round; stroke-linejoin:round;">
<path d="M23622 77955
L23622 78742
" />
</g>
<g style="fill:#000000; fill-opacity:0.0; 
stroke:#000000; stroke-width:39.3701; stroke-opacity:1; 
stroke-linecap:round; stroke-linejoin:round;">
</g>
<g style="fill:#000000; fill-opacity:0.0; 
stroke:#000000; stroke-width:59.0551; stroke-opacity:1; 
stroke-linecap:round; stroke-linejoin:round;">
<path d="M43307 77955
L43307 78742
" />
</g>
<g style="fill:#000000; fill-opacity:0.0; 
stroke:#000000; stroke-width:39.3701; stroke-opacity:1; 
stroke-linecap:round; stroke-linejoin:round;">
</g>
<g style="fill:#000000; fill-opacity:0.0; 
stroke:#000000; stroke-width:59.0551; stroke-opacity:1; 
stroke-linecap:round; stroke-linejoin:round;">
<path d="M62992 77955
L62992 78742
" />
</g>
<g style="fill:#000000; fill-opacity:0.0; 
stroke:#000000; stroke-width:39.3701; stroke-opacity:1; 
stroke-linecap:round; stroke-linejoin:round;">
</g>
<g style="fill:#000000; fill-opacity:0.0; 
stroke:#000000; stroke-width:59.0551; stroke-opacity:1; 
stroke-linecap:round; stroke-linejoin:round;">
<path d="M82677 77955
L82677 78742
" />
</g>
<g style="fill:#000000; fill-opacity:0.0; 
stroke:#000000; stroke-width:39.3701; stroke-opacity:1; 
stroke-linecap:round; stroke-linejoin:round;">
</g>
<g style="fill:#000000; fill-opacity:0.0; 
stroke:#000000; stroke-width:59.0551; stroke-opacity:1; 
stroke-linecap:round; stroke-linejoin:round;">
<path d="M102362 77955
L102362 78742
" />
</g>
<g style="fill:#000000; fill-opacity:0.0; 
stroke:#000000; stroke-width:39.3701; stroke-opacity:1; 
stroke-linecap:round; stroke-linejoin:round;">
</g>
<g style="fill:#000000; fill-opacity:0.0; 
stroke:#000000; stroke-width:59.0551; stroke-opacity:1; 
stroke-linecap:round; stroke-linejoin:round;">
<text x="13779.5" y="78605.2"
textLength="546.494" font-size="682.415" lengthAdjust="spacingAndGlyphs"
text-anchor="start" opacity="0">1</text>
<path d="M14199 78580
L13906 78580
" />
<path d="M14052 78580
L14052 78069
L14004 78142
L13955 78190
L13906 78215
" />
</g>
<g style="fill:#000000; fill-opacity:0.0; 
stroke:#000000; stroke-width:39.3701; stroke-opacity:1; 
stroke-linecap:round; stroke-linejoin:round;">
</g>
<g style="fill:#000000; fill-opacity:0.0; 
stroke:#000000; stroke-width:59.0551; stroke-opacity:1; 
stroke-linecap:round; stroke-linejoin:round;">
<text x="33464.6" y="78605.2"
textLength="546.494" font-size="682.415" lengthAdjust="spacingAndGlyphs"
text-anchor="start" opacity="0">2</text>
<path d="M33591 78117
L33615 78093
L33664 78069
L33786 78069
L33835 78093
L33859 78117
L33884 78166
L33884 78215
L33859 78288
L33567 78580
L33884 78580
" />
</g>
<g style="fill:#000000; fill-opacity:0.0; 
stroke:#000000; stroke-width:39.3701; stroke-opacity:1; 
stroke-linecap:round; stroke-linejoin:round;">
</g>
<g style="fill:#000000; fill-opacity:0.0; 
stroke:#000000; stroke-width:59.0551; stroke-opacity:1; 
stroke-linecap:round; stroke-linejoin:round;">
<text x="53149.6" y="78605.2"
textLength="546.494" font-size="682.415" lengthAdjust="spacingAndGlyphs"
text-anchor="start" opacity="0">3</text>
<path d="M53252 78069
L53569 78069
L53398 78263
L53471 78263
L53520 78288
L53544 78312
L53569 78361
L53569 78483
L53544 78532
L53520 78556
L53471 78580
L53325 78580
L53276 78556
L53252 78532
" />
</g>
<g style="fill:#000000; fill-opacity:0.0; 
stroke:#000000; stroke-width:39.3701; stroke-opacity:1; 
stroke-linecap:round; stroke-linejoin:round;">
</g>
<g style="fill:#000000; fill-opacity:0.0; 
stroke:#000000; stroke-width:59.0551; stroke-opacity:1; 
stroke-linecap:round; stroke-linejoin:round;">
<text x="72834.6" y="78605.2"
textLength="546.494" font-size="682.415" lengthAdjust="spacingAndGlyphs"
text-anchor="start" opacity="0">4</text>
<path d="M73205 78239
L73205 78580
" />
<path d="M73083 78044
L72961 78410
L73278 78410
" />
</g>
<g style="fill:#000000; fill-opacity:0.0; 
stroke:#000000; stroke-width:39.3701; stroke-opacity:1; 
stroke-linecap:round; stroke-linejoin:round;">
</g>
<g style="fill:#000000; fill-opacity:0.0; 
stroke:#000000; stroke-width:59.0551; stroke-opacity:1; 
stroke-linecap:round; stroke-linejoin:round;">
<text x="92519.7" y="78605.2"
textLength="546.494" font-size="682.415" lengthAdjust="spacingAndGlyphs"
text-anchor="start" opacity="0">5</text>
<path d="M92914 78069
L92671 78069
L92646 78312
L92671 78288
L92719 78263
L92841 78263
L92890 78288
L92914 78312
L92939 78361
L92939 78483
L92914 78532
L92890 78556
L92841 78580
L92719 78580
L92671 78556
L92646 78532
" />
</g>
<g style="fill:#000000; fill-opacity:0.0; 
stroke:#000000; stroke-width:39.3701; stroke-opacity:1; 
stroke-linecap:round; stroke-linejoin:round;">
</g>
<g style="fill:#000000; fill-opacity:0.0; 
stroke:#000000; stroke-width:59.0551; stroke-opacity:1; 
stroke-linecap:round; stroke-linejoin:round;">
<text x="112205" y="78605.2"
textLength="546.494" font-size="682.415" lengthAdjust="spacingAndGlyphs"
text-anchor="start" opacity="0">6</text>
<path d="M112575 78069
L112477 78069
L112429 78093
L112404 78117
L112356 78190
L112331 78288
L112331 78483
L112356 78532
L112380 78556
L112429 78580
L112526 78580
L112575 78556
L112599 78532
L112624 78483
L112624 78361
L112599 78312
L112575 78288
L112526 78263
L112429 78263
L112380 78288
L112356 78312
L112331 78361
" />
</g>
<g style="fill:#000000; fill-opacity:0.0; 
stroke:#000000; stroke-width:39.3701; stroke-opacity:1; 
stroke-linecap:round; stroke-linejoin:round;">
</g>
<g style="fill:#000000; fill-opacity:0.0; 
stroke:#000000; stroke-width:59.0551; stroke-opacity:1; 
stroke-linecap:round; stroke-linejoin:round;">
<path d="M3937 23622
L4724 23622
" />
</g>
<g style="fill:#000000; fill-opacity:0.0; 
stroke:#000000; stroke-width:39.3701; stroke-opacity:1; 
stroke-linecap:round; stroke-linejoin:round;">
</g>
<g style="fill:#000000; fill-opacity:0.0; 
stroke:#000000; stroke-width:59.0551; stroke-opacity:1; 
stroke-linecap:round; stroke-linejoin:round;">
<path d="M3937 43307
L4724 43307
" />
</g>
<g style="fill:#000000; fill-opacity:0.0; 
stroke:#000000; stroke-width:39.3701; stroke-opacity:1; 
stroke-linecap:round; stroke-linejoin:round;">
</g>
<g style="fill:#000000; fill-opacity:0.0; 
stroke:#000000; stroke-width:59.0551; stroke-opacity:1; 
stroke-linecap:round; stroke-linejoin:round;">
<path d="M3937 62992
L4724 62992
" />
</g>
<g style="fill:#000000; fill-opacity:0.0; 
stroke:#000000; stroke-width:39.3701; stroke-opacity:1; 
stroke-linecap:round; stroke-linejoin:round;">
</g>
<g style="fill:#000000; fill-opacity:0.0; 
stroke:#000000; stroke-width:59.0551; stroke-opacity:1; 
stroke-linecap:round; stroke-linejoin:round;">
<text x="4330.71" y="14035.4"
textLength="497.75" font-size="682.415" lengthAdjust="spacingAndGlyphs"
text-anchor="middle" opacity="0">A</text>
<path d="M4208 13864
L4452 13864
" />
<path d="M4160 14011
L4330 13499
L4501 14011
" />
</g>
<g style="fill:#000000; fill-opacity:0.0; 
stroke:#000000; stroke-width:39.3701; stroke-opacity:1; 
stroke-linecap:round; stroke-linejoin:round;">
</g>
<g style="fill:#000000; fill-opacity:0.0; 
stroke:#000000; stroke-width:59.0551; stroke-opacity:1; 
stroke-linecap:round; stroke-linejoin:round;">
<text x="4330.71" y="33720.5"
textLength="570.866" font-size="682.415" lengthAdjust="spacingAndGlyphs"
text-anchor="middle" opacity="0">B</text>
<path d="M4367 33428
L4440 33452
L4464 33476
L4489 33525
L4489 33598
L4464 33647
L4440 33671
L4391 33696
L4196 33696
L4196 33184
L4367 33184
L4416 33208
L4440 33233
L4464 33281
L4464 33330
L4440 33379
L4416 33403
L4367 33428
L4196 33428
" />
</g>
<g style="fill:#000000; fill-opacity:0.0; 
stroke:#000000; stroke-width:39.3701; stroke-opacity:1; 
stroke-linecap:round; stroke-linejoin:round;">
</g>
<g style="fill:#000000; fill-opacity:0.0; 
stroke:#000000; stroke-width:59.0551; stroke-opacity:1; 
stroke-linecap:round; stroke-linejoin:round;">
<text x="4330.71" y="53405.5"
textLength="570.866" font-size="682.415" lengthAdjust="spacingAndGlyphs"
text-anchor="middle" opacity="0">C</text>
<path d="M4489 53332
L4464 53356
L4391 53381
L4342 53381
L4269 53356
L4221 53308
L4196 53259
L4172 53161
L4172 53088
L4196 52991
L4221 52942
L4269 52893
L4342 52869
L4391 52869
L4464 52893
L4489 52918
" />
</g>
<g style="fill:#000000; fill-opacity:0.0; 
stroke:#000000; stroke-width:39.3701; stroke-opacity:1; 
stroke-linecap:round; stroke-linejoin:round;">
</g>
<g style="fill:#000000; fill-opacity:0.0; 
stroke:#000000; stroke-width:59.0551; stroke-opacity:1; 
stroke-linecap:round; stroke-linejoin:round;">
<text x="4330.71" y="73090.6"
textLength="570.866" font-size="682.415" lengthAdjust="spacingAndGlyphs"
text-anchor="middle" opacity="0">D</text>
<path d="M4196 73066
L4196 72554
L4318 72554
L4391 72578
L4440 72627
L4464 72676
L4489 72773
L4489 72846
L4464 72944
L4440 72993
L4391 73041
L4318 73066
L4196 73066
" />
</g>
<g style="fill:#000000; fill-opacity:0.0; 
stroke:#000000; stroke-width:39.3701; stroke-opacity:1; 
stroke-linecap:round; stroke-linejoin:round;">
</g>
<g style="fill:#000000; fill-opacity:0.0; 
stroke:#000000; stroke-width:59.0551; stroke-opacity:1; 
stroke-linecap:round; stroke-linejoin:round;">
<path d="M112992 23622
L112205 23622
" />
</g>
<g style="fill:#000000; fill-opacity:0.0; 
stroke:#000000; stroke-width:39.3701; stroke-opacity:1; 
stroke-linecap:round; stroke-linejoin:round;">
</g>
<g style="fill:#000000; fill-opacity:0.0; 
stroke:#000000; stroke-width:59.0551; stroke-opacity:1; 
stroke-linecap:round; stroke-linejoin:round;">
<path d="M112992 43307
L112205 43307
" />
</g>
<g style="fill:#000000; fill-opacity:0.0; 
stroke:#000000; stroke-width:39.3701; stroke-opacity:1; 
stroke-linecap:round; stroke-linejoin:round;">
</g>
<g style="fill:#000000; fill-opacity:0.0; 
stroke:#000000; stroke-width:59.0551; stroke-opacity:1; 
stroke-linecap:round; stroke-linejoin:round;">
<path d="M112992 62992
L112205 62992
" />
</g>
<g style="fill:#000000; fill-opacity:0.0; 
stroke:#000000; stroke-width:39.3701; stroke-opacity:1; 
stroke-linecap:round; stroke-linejoin:round;">
</g>
<g style="fill:#000000; fill-opacity:0.0; 
stroke:#000000; stroke-width:59.0551; stroke-opacity:1; 
stroke-linecap:round; stroke-linejoin:round;">
<text x="112599" y="14035.4"
textLength="497.75" font-size="682.415" lengthAdjust="spacingAndGlyphs"
text-anchor="middle" opacity="0">A</text>
<path d="M112477 13864
L112721 13864
" />
<path d="M112428 14011
L112599 13499
L112769 14011
" />
</g>
<g style="fill:#000000; fill-opacity:0.0; 
stroke:#000000; stroke-width:39.3701; stroke-opacity:1; 
stroke-linecap:round; stroke-linejoin:round;">
</g>
<g style="fill:#000000; fill-opacity:0.0; 
stroke:#000000; stroke-width:59.0551; stroke-opacity:1; 
stroke-linecap:round; stroke-linejoin:round;">
<text x="112599" y="33720.5"
textLength="570.866" font-size="682.415" lengthAdjust="spacingAndGlyphs"
text-anchor="middle" opacity="0">B</text>
<path d="M112635 33428
L112708 33452
L112733 33476
L112757 33525
L112757 33598
L112733 33647
L112708 33671
L112660 33696
L112465 33696
L112465 33184
L112635 33184
L112684 33208
L112708 33233
L112733 33281
L112733 33330
L112708 33379
L112684 33403
L112635 33428
L112465 33428
" />
</g>
<g style="fill:#000000; fill-opacity:0.0; 
stroke:#000000; stroke-width:39.3701; stroke-opacity:1; 
stroke-linecap:round; stroke-linejoin:round;">
</g>
<g style="fill:#000000; fill-opacity:0.0; 
stroke:#000000; stroke-width:59.0551; stroke-opacity:1; 
stroke-linecap:round; stroke-linejoin:round;">
<text x="112599" y="53405.5"
textLength="570.866" font-size="682.415" lengthAdjust="spacingAndGlyphs"
text-anchor="middle" opacity="0">C</text>
<path d="M112757 53332
L112733 53356
L112660 53381
L112611 53381
L112538 53356
L112489 53308
L112465 53259
L112440 53161
L112440 53088
L112465 52991
L112489 52942
L112538 52893
L112611 52869
L112660 52869
L112733 52893
L112757 52918
" />
</g>
<g style="fill:#000000; fill-opacity:0.0; 
stroke:#000000; stroke-width:39.3701; stroke-opacity:1; 
stroke-linecap:round; stroke-linejoin:round;">
</g>
<g style="fill:#000000; fill-opacity:0.0; 
stroke:#000000; stroke-width:59.0551; stroke-opacity:1; 
stroke-linecap:round; stroke-linejoin:round;">
<text x="112599" y="73090.6"
textLength="570.866" font-size="682.415" lengthAdjust="spacingAndGlyphs"
text-anchor="middle" opacity="0">D</text>
<path d="M112465 73066
L112465 72554
L112587 72554
L112660 72578
L112708 72627
L112733 72676
L112757 72773
L112757 72846
L112733 72944
L112708 72993
L112660 73041
L112587 73066
L112465 73066
" />
</g>
<g style="fill:#000000; fill-opacity:0.0; 
stroke:#000000; stroke-width:39.3701; stroke-opacity:1; 
stroke-linecap:round; stroke-linejoin:round;">
</g>
<g style="fill:#000000; fill-opacity:0.0; 
stroke:#000000; stroke-width:59.0551; stroke-opacity:1; 
stroke-linecap:round; stroke-linejoin:round;">
<text x="78741" y="76321.7"
textLength="2758.72" font-size="787.402" lengthAdjust="spacingAndGlyphs"
text-anchor="start" opacity="0">Date: </text>
<path d="M78911 76293
L78911 75703
L79051 75703
L79136 75731
L79192 75787
L79220 75843
L79248 75956
L79248 76040
L79220 76153
L79192 76209
L79136 76265
L79051 76293
L78911 76293
" />
<path d="M79754 76293
L79754 75984
L79726 75928
L79670 75899
L79557 75899
L79501 75928
" />
<path d="M79754 76265
L79698 76293
L79557 76293
L79501 76265
L79473 76209
L79473 76153
L79501 76096
L79557 76068
L79698 76068
L79754 76040
" />
<path d="M79951 75899
L80176 75899
" />
<path d="M80036 75703
L80036 76209
L80064 76265
L80120 76293
L80176 76293
" />
<path d="M80598 76265
L80542 76293
L80429 76293
L80373 76265
L80345 76209
L80345 75984
L80373 75928
L80429 75899
L80542 75899
L80598 75928
L80626 75984
L80626 76040
L80345 76096
" />
<path d="M80879 76237
L80907 76265
L80879 76293
L80851 76265
L80879 76237
L80879 76293
" />
<path d="M80879 75928
L80907 75956
L80879 75984
L80851 75956
L80879 75928
L80879 75984
" />
</g>
<g style="fill:#000000; fill-opacity:0.0; 
stroke:#000000; stroke-width:39.3701; stroke-opacity:1; 
stroke-linecap:round; stroke-linejoin:round;">
</g>
<g style="fill:#000000; fill-opacity:0.0; 
stroke:#000000; stroke-width:59.0551; stroke-opacity:1; 
stroke-linecap:round; stroke-linejoin:round;">
<path d="M69685 76577
L112205 76577
" />
</g>
<g style="fill:#000000; fill-opacity:0.0; 
stroke:#000000; stroke-width:39.3701; stroke-opacity:1; 
stroke-linecap:round; stroke-linejoin:round;">
</g>
<g style="fill:#000000; fill-opacity:0.0; 
stroke:#000000; stroke-width:59.0551; stroke-opacity:1; 
stroke-linecap:round; stroke-linejoin:round;">
<text x="70079.6" y="77424.1"
textLength="18422.4" font-size="787.402" lengthAdjust="spacingAndGlyphs"
text-anchor="start" opacity="0">KiCad E.D.A.  pcbnew (5.1.10-1-10_14)</text>
<path d="M70249 77395
L70249 76805
" />
<path d="M70587 77395
L70334 77058
" />
<path d="M70587 76805
L70249 77142
" />
<path d="M70840 77395
L70840 77002
" />
<path d="M70840 76805
L70812 76833
L70840 76861
L70868 76833
L70840 76805
L70840 76861
" />
<path d="M71458 77339
L71430 77367
L71346 77395
L71290 77395
L71205 77367
L71149 77311
L71121 77255
L71093 77142
L71093 77058
L71121 76946
L71149 76889
L71205 76833
L71290 76805
L71346 76805
L71430 76833
L71458 76861
" />
<path d="M71965 77395
L71965 77086
L71937 77030
L71880 77002
L71768 77002
L71712 77030
" />
<path d="M71965 77367
L71908 77395
L71768 77395
L71712 77367
L71683 77311
L71683 77255
L71712 77199
L71768 77171
L71908 77171
L71965 77142
" />
<path d="M72499 77395
L72499 76805
" />
<path d="M72499 77367
L72443 77395
L72330 77395
L72274 77367
L72246 77339
L72218 77283
L72218 77114
L72246 77058
L72274 77030
L72330 77002
L72443 77002
L72499 77030
" />
<path d="M73230 77086
L73427 77086
" />
<path d="M73511 77395
L73230 77395
L73230 76805
L73511 76805
" />
<path d="M73764 77339
L73793 77367
L73764 77395
L73736 77367
L73764 77339
L73764 77395
" />
<path d="M74046 77395
L74046 76805
L74186 76805
L74271 76833
L74327 76889
L74355 76946
L74383 77058
L74383 77142
L74355 77255
L74327 77311
L74271 77367
L74186 77395
L74046 77395
" />
<path d="M74636 77339
L74664 77367
L74636 77395
L74608 77367
L74636 77339
L74636 77395
" />
<path d="M74889 77227
L75171 77227
" />
<path d="M74833 77395
L75030 76805
L75227 77395
" />
<path d="M75424 77339
L75452 77367
L75424 77395
L75395 77367
L75424 77339
L75424 77395
" />
<path d="M76605 77002
L76605 77592
" />
<path d="M76605 77030
L76661 77002
L76773 77002
L76830 77030
L76858 77058
L76886 77114
L76886 77283
L76858 77339
L76830 77367
L76773 77395
L76661 77395
L76605 77367
" />
<path d="M77392 77367
L77336 77395
L77223 77395
L77167 77367
L77139 77339
L77111 77283
L77111 77114
L77139 77058
L77167 77030
L77223 77002
L77336 77002
L77392 77030
" />
<path d="M77645 77395
L77645 76805
" />
<path d="M77645 77030
L77701 77002
L77814 77002
L77870 77030
L77898 77058
L77926 77114
L77926 77283
L77898 77339
L77870 77367
L77814 77395
L77701 77395
L77645 77367
" />
<path d="M78180 77002
L78180 77395
" />
<path d="M78180 77058
L78208 77030
L78264 77002
L78348 77002
L78404 77030
L78433 77086
L78433 77395
" />
<path d="M78939 77367
L78883 77395
L78770 77395
L78714 77367
L78686 77311
L78686 77086
L78714 77030
L78770 77002
L78883 77002
L78939 77030
L78967 77086
L78967 77142
L78686 77199
" />
<path d="M79164 77002
L79276 77395
L79389 77114
L79501 77395
L79614 77002
" />
<path d="M80457 77620
L80429 77592
L80373 77508
L80345 77452
L80317 77367
L80289 77227
L80289 77114
L80317 76974
L80345 76889
L80373 76833
L80429 76749
L80457 76721
" />
<path d="M80964 76805
L80682 76805
L80654 77086
L80682 77058
L80739 77030
L80879 77030
L80935 77058
L80964 77086
L80992 77142
L80992 77283
L80964 77339
L80935 77367
L80879 77395
L80739 77395
L80682 77367
L80654 77339
" />
<path d="M81245 77339
L81273 77367
L81245 77395
L81217 77367
L81245 77339
L81245 77395
" />
<path d="M81835 77395
L81498 77395
" />
<path d="M81667 77395
L81667 76805
L81610 76889
L81554 76946
L81498 76974
" />
<path d="M82088 77339
L82117 77367
L82088 77395
L82060 77367
L82088 77339
L82088 77395
" />
<path d="M82679 77395
L82341 77395
" />
<path d="M82510 77395
L82510 76805
L82454 76889
L82398 76946
L82341 76974
" />
<path d="M83045 76805
L83101 76805
L83157 76833
L83185 76861
L83213 76917
L83241 77030
L83241 77171
L83213 77283
L83185 77339
L83157 77367
L83101 77395
L83045 77395
L82988 77367
L82960 77339
L82932 77283
L82904 77171
L82904 77030
L82932 76917
L82960 76861
L82988 76833
L83045 76805
" />
<path d="M83494 77171
L83944 77171
" />
<path d="M84535 77395
L84197 77395
" />
<path d="M84366 77395
L84366 76805
L84310 76889
L84254 76946
L84197 76974
" />
<path d="M84788 77171
L85238 77171
" />
<path d="M85829 77395
L85491 77395
" />
<path d="M85660 77395
L85660 76805
L85604 76889
L85547 76946
L85491 76974
" />
<path d="M86194 76805
L86250 76805
L86307 76833
L86335 76861
L86363 76917
L86391 77030
L86391 77171
L86363 77283
L86335 77339
L86307 77367
L86250 77395
L86194 77395
L86138 77367
L86110 77339
L86082 77283
L86054 77171
L86054 77030
L86082 76917
L86110 76861
L86138 76833
L86194 76805
" />
<path d="M86503 77452
L86953 77452
" />
<path d="M87403 77395
L87066 77395
" />
<path d="M87235 77395
L87235 76805
L87178 76889
L87122 76946
L87066 76974
" />
<path d="M87910 77002
L87910 77395
" />
<path d="M87769 76777
L87628 77199
L87994 77199
" />
<path d="M88163 77620
L88191 77592
L88247 77508
L88275 77452
L88303 77367
L88331 77227
L88331 77114
L88303 76974
L88275 76889
L88247 76833
L88191 76749
L88163 76721
" />
</g>
<g style="fill:#000000; fill-opacity:0.0; 
stroke:#000000; stroke-width:39.3701; stroke-opacity:1; 
stroke-linecap:round; stroke-linejoin:round;">
</g>
<g style="fill:#000000; fill-opacity:0.0; 
stroke:#000000; stroke-width:59.0551; stroke-opacity:1; 
stroke-linecap:round; stroke-linejoin:round;">
<path d="M69685 75396
L112205 75396
" />
</g>
<g style="fill:#000000; fill-opacity:0.0; 
stroke:#000000; stroke-width:39.3701; stroke-opacity:1; 
stroke-linecap:round; stroke-linejoin:round;">
</g>
<g style="fill:#000000; fill-opacity:0.0; 
stroke:#000000; stroke-width:118.11; stroke-opacity:1; 
stroke-linecap:round; stroke-linejoin:round;">
<text x="103544" y="76321.7"
textLength="2336.9" font-size="787.402" lengthAdjust="spacingAndGlyphs"
text-anchor="start" opacity="0">Rev: </text>
<path d="M104099 76293
L103902 76012
" />
<path d="M103761 76293
L103761 75703
L103986 75703
L104042 75731
L104070 75759
L104099 75815
L104099 75899
L104070 75956
L104042 75984
L103986 76012
L103761 76012
" />
<path d="M104577 76265
L104520 76293
L104408 76293
L104352 76265
L104323 76209
L104323 75984
L104352 75928
L104408 75899
L104520 75899
L104577 75928
L104605 75984
L104605 76040
L104323 76096
" />
<path d="M104802 75899
L104942 76293
L105083 75899
" />
<path d="M105308 76237
L105336 76265
L105308 76293
L105280 76265
L105308 76237
L105308 76293
" />
<path d="M105308 75928
L105336 75956
L105308 75984
L105280 75956
L105308 75928
L105308 75984
" />
</g>
<g style="fill:#000000; fill-opacity:0.0; 
stroke:#000000; stroke-width:39.3701; stroke-opacity:1; 
stroke-linecap:round; stroke-linejoin:round;">
</g>
<g style="fill:#000000; fill-opacity:0.0; 
stroke:#000000; stroke-width:59.0551; stroke-opacity:1; 
stroke-linecap:round; stroke-linejoin:round;">
<text x="70079.6" y="76321.7"
textLength="3781.21" font-size="787.402" lengthAdjust="spacingAndGlyphs"
text-anchor="start" opacity="0">Size: A4</text>
<path d="M70221 76265
L70305 76293
L70446 76293
L70502 76265
L70530 76237
L70559 76181
L70559 76124
L70530 76068
L70502 76040
L70446 76012
L70334 75984
L70277 75956
L70249 75928
L70221 75871
L70221 75815
L70249 75759
L70277 75731
L70334 75703
L70474 75703
L70559 75731
" />
<path d="M70812 76293
L70812 75899
" />
<path d="M70812 75703
L70784 75731
L70812 75759
L70840 75731
L70812 75703
L70812 75759
" />
<path d="M71037 75899
L71346 75899
L71037 76293
L71346 76293
" />
<path d="M71796 76265
L71740 76293
L71627 76293
L71571 76265
L71543 76209
L71543 75984
L71571 75928
L71627 75899
L71740 75899
L71796 75928
L71824 75984
L71824 76040
L71543 76096
" />
<path d="M72077 76237
L72105 76265
L72077 76293
L72049 76265
L72077 76237
L72077 76293
" />
<path d="M72077 75928
L72105 75956
L72077 75984
L72049 75956
L72077 75928
L72077 75984
" />
<path d="M72780 76124
L73061 76124
" />
<path d="M72724 76293
L72921 75703
L73118 76293
" />
<path d="M73568 75899
L73568 76293
" />
<path d="M73427 75674
L73286 76096
L73652 76096
" />
</g>
<g style="fill:#000000; fill-opacity:0.0; 
stroke:#000000; stroke-width:39.3701; stroke-opacity:1; 
stroke-linecap:round; stroke-linejoin:round;">
</g>
<g style="fill:#000000; fill-opacity:0.0; 
stroke:#000000; stroke-width:59.0551; stroke-opacity:1; 
stroke-linecap:round; stroke-linejoin:round;">
<text x="103544" y="77424.1"
textLength="3349.27" font-size="787.402" lengthAdjust="spacingAndGlyphs"
text-anchor="start" opacity="0">Id: 1/1</text>
<path d="M103714 77395
L103714 76805
" />
<path d="M104248 77395
L104248 76805
" />
<path d="M104248 77367
L104192 77395
L104079 77395
L104023 77367
L103995 77339
L103967 77283
L103967 77114
L103995 77058
L104023 77030
L104079 77002
L104192 77002
L104248 77030
" />
<path d="M104529 77339
L104557 77367
L104529 77395
L104501 77367
L104529 77339
L104529 77395
" />
<path d="M104529 77030
L104557 77058
L104529 77086
L104501 77058
L104529 77030
L104529 77086
" />
<path d="M105570 77395
L105232 77395
" />
<path d="M105401 77395
L105401 76805
L105345 76889
L105289 76946
L105232 76974
" />
<path d="M106245 76777
L105739 77536
" />
<path d="M106751 77395
L106413 77395
" />
<path d="M106582 77395
L106582 76805
L106526 76889
L106470 76946
L106413 76974
" />
</g>
<g style="fill:#000000; fill-opacity:0.0; 
stroke:#000000; stroke-width:39.3701; stroke-opacity:1; 
stroke-linecap:round; stroke-linejoin:round;">
</g>
<g style="fill:#000000; fill-opacity:0.0; 
stroke:#000000; stroke-width:59.0551; stroke-opacity:1; 
stroke-linecap:round; stroke-linejoin:round;">
<path d="M69685 73821
L112205 73821
" />
</g>
<g style="fill:#000000; fill-opacity:0.0; 
stroke:#000000; stroke-width:39.3701; stroke-opacity:1; 
stroke-linecap:round; stroke-linejoin:round;">
</g>
<g style="fill:#000000; fill-opacity:0.0; 
stroke:#000000; stroke-width:157.48; stroke-opacity:1; 
stroke-linecap:round; stroke-linejoin:round;">
<text x="70079.6" y="74924.1"
textLength="3701.14" font-size="1049.87" lengthAdjust="spacingAndGlyphs"
text-anchor="start" opacity="0">Title: </text>
<path d="M70360 74099
L70810 74099
" />
<path d="M70486 74886
L70585 74099
" />
<path d="M70974 74886
L71039 74361
" />
<path d="M71072 74099
L71030 74136
L71063 74174
L71105 74136
L71072 74099
L71063 74174
" />
<path d="M71302 74361
L71602 74361
" />
<path d="M71447 74099
L71363 74774
L71391 74849
L71461 74886
L71536 74886
" />
<path d="M71911 74886
L71841 74849
L71813 74774
L71897 74099
" />
<path d="M72516 74849
L72436 74886
L72286 74886
L72216 74849
L72187 74774
L72225 74474
L72272 74399
L72352 74361
L72501 74361
L72572 74399
L72600 74474
L72591 74549
L72206 74624
" />
<path d="M72895 74811
L72928 74849
L72886 74886
L72853 74849
L72895 74811
L72886 74886
" />
<path d="M72947 74399
L72980 74436
L72937 74474
L72905 74436
L72947 74399
L72937 74474
" />
</g>
<g style="fill:#000000; fill-opacity:0.0; 
stroke:#000000; stroke-width:39.3701; stroke-opacity:1; 
stroke-linecap:round; stroke-linejoin:round;">
</g>
<g style="fill:#000000; fill-opacity:0.0; 
stroke:#000000; stroke-width:59.0551; stroke-opacity:1; 
stroke-linecap:round; stroke-linejoin:round;">
<text x="70079.6" y="73408.3"
textLength="12887.5" font-size="787.402" lengthAdjust="spacingAndGlyphs"
text-anchor="start" opacity="0">File: Tiny44_ghost.kicad_pcb</text>
<path d="M70446 73070
L70249 73070
" />
<path d="M70249 73380
L70249 72789
L70530 72789
" />
<path d="M70755 73380
L70755 72986
" />
<path d="M70755 72789
L70727 72817
L70755 72845
L70784 72817
L70755 72789
L70755 72845
" />
<path d="M71121 73380
L71065 73352
L71037 73295
L71037 72789
" />
<path d="M71571 73352
L71515 73380
L71402 73380
L71346 73352
L71318 73295
L71318 73070
L71346 73014
L71402 72986
L71515 72986
L71571 73014
L71599 73070
L71599 73127
L71318 73183
" />
<path d="M71852 73323
L71880 73352
L71852 73380
L71824 73352
L71852 73323
L71852 73380
" />
<path d="M71852 73014
L71880 73042
L71852 73070
L71824 73042
L71852 73014
L71852 73070
" />
<path d="M72499 72789
L72836 72789
" />
<path d="M72668 73380
L72668 72789
" />
<path d="M73033 73380
L73033 72986
" />
<path d="M73033 72789
L73005 72817
L73033 72845
L73061 72817
L73033 72789
L73033 72845
" />
<path d="M73314 72986
L73314 73380
" />
<path d="M73314 73042
L73343 73014
L73399 72986
L73483 72986
L73539 73014
L73568 73070
L73568 73380
" />
<path d="M73793 72986
L73933 73380
" />
<path d="M74074 72986
L73933 73380
L73877 73520
L73849 73548
L73793 73577
" />
<path d="M74552 72986
L74552 73380
" />
<path d="M74411 72761
L74271 73183
L74636 73183
" />
<path d="M75114 72986
L75114 73380
" />
<path d="M74974 72761
L74833 73183
L75199 73183
" />
<path d="M75283 73436
L75733 73436
" />
<path d="M76127 72986
L76127 73464
L76099 73520
L76070 73548
L76014 73577
L75930 73577
L75874 73548
" />
<path d="M76127 73352
L76070 73380
L75958 73380
L75902 73352
L75874 73323
L75845 73267
L75845 73099
L75874 73042
L75902 73014
L75958 72986
L76070 72986
L76127 73014
" />
<path d="M76408 73380
L76408 72789
" />
<path d="M76661 73380
L76661 73070
L76633 73014
L76577 72986
L76492 72986
L76436 73014
L76408 73042
" />
<path d="M77027 73380
L76970 73352
L76942 73323
L76914 73267
L76914 73099
L76942 73042
L76970 73014
L77027 72986
L77111 72986
L77167 73014
L77195 73042
L77223 73099
L77223 73267
L77195 73323
L77167 73352
L77111 73380
L77027 73380
" />
<path d="M77448 73352
L77505 73380
L77617 73380
L77673 73352
L77701 73295
L77701 73267
L77673 73211
L77617 73183
L77533 73183
L77476 73155
L77448 73099
L77448 73070
L77476 73014
L77533 72986
L77617 72986
L77673 73014
" />
<path d="M77870 72986
L78095 72986
" />
<path d="M77955 72789
L77955 73295
L77983 73352
L78039 73380
L78095 73380
" />
<path d="M78292 73323
L78320 73352
L78292 73380
L78264 73352
L78292 73323
L78292 73380
" />
<path d="M78573 73380
L78573 72789
" />
<path d="M78629 73155
L78798 73380
" />
<path d="M78798 72986
L78573 73211
" />
<path d="M79051 73380
L79051 72986
" />
<path d="M79051 72789
L79023 72817
L79051 72845
L79079 72817
L79051 72789
L79051 72845
" />
<path d="M79586 73352
L79529 73380
L79417 73380
L79361 73352
L79332 73323
L79304 73267
L79304 73099
L79332 73042
L79361 73014
L79417 72986
L79529 72986
L79586 73014
" />
<path d="M80092 73380
L80092 73070
L80064 73014
L80007 72986
L79895 72986
L79839 73014
" />
<path d="M80092 73352
L80036 73380
L79895 73380
L79839 73352
L79811 73295
L79811 73239
L79839 73183
L79895 73155
L80036 73155
L80092 73127
" />
<path d="M80626 73380
L80626 72789
" />
<path d="M80626 73352
L80570 73380
L80457 73380
L80401 73352
L80373 73323
L80345 73267
L80345 73099
L80373 73042
L80401 73014
L80457 72986
L80570 72986
L80626 73014
" />
<path d="M80767 73436
L81217 73436
" />
<path d="M81357 72986
L81357 73577
" />
<path d="M81357 73014
L81413 72986
L81526 72986
L81582 73014
L81610 73042
L81638 73099
L81638 73267
L81610 73323
L81582 73352
L81526 73380
L81413 73380
L81357 73352
" />
<path d="M82145 73352
L82088 73380
L81976 73380
L81920 73352
L81892 73323
L81863 73267
L81863 73099
L81892 73042
L81920 73014
L81976 72986
L82088 72986
L82145 73014
" />
<path d="M82398 73380
L82398 72789
" />
<path d="M82398 73014
L82454 72986
L82566 72986
L82623 73014
L82651 73042
L82679 73099
L82679 73267
L82651 73323
L82623 73352
L82566 73380
L82454 73380
L82398 73352
" />
</g>
<g style="fill:#000000; fill-opacity:0.0; 
stroke:#000000; stroke-width:39.3701; stroke-opacity:1; 
stroke-linecap:round; stroke-linejoin:round;">
</g>
<g style="fill:#000000; fill-opacity:0.0; 
stroke:#000000; stroke-width:59.0551; stroke-opacity:1; 
stroke-linecap:round; stroke-linejoin:round;">
<path d="M69685 71459
L112205 71459
" />
</g>
<g style="fill:#000000; fill-opacity:0.0; 
stroke:#000000; stroke-width:39.3701; stroke-opacity:1; 
stroke-linecap:round; stroke-linejoin:round;">
</g>
<g style="fill:#000000; fill-opacity:0.0; 
stroke:#000000; stroke-width:59.0551; stroke-opacity:1; 
stroke-linecap:round; stroke-linejoin:round;">
<text x="70079.6" y="72345.4"
textLength="3236.78" font-size="787.402" lengthAdjust="spacingAndGlyphs"
text-anchor="start" opacity="0">Sheet: </text>
<path d="M70221 72289
L70305 72317
L70446 72317
L70502 72289
L70530 72260
L70559 72204
L70559 72148
L70530 72092
L70502 72064
L70446 72036
L70334 72007
L70277 71979
L70249 71951
L70221 71895
L70221 71839
L70249 71782
L70277 71754
L70334 71726
L70474 71726
L70559 71754
" />
<path d="M70812 72317
L70812 71726
" />
<path d="M71065 72317
L71065 72007
L71037 71951
L70980 71923
L70896 71923
L70840 71951
L70812 71979
" />
<path d="M71571 72289
L71515 72317
L71402 72317
L71346 72289
L71318 72232
L71318 72007
L71346 71951
L71402 71923
L71515 71923
L71571 71951
L71599 72007
L71599 72064
L71318 72120
" />
<path d="M72077 72289
L72021 72317
L71908 72317
L71852 72289
L71824 72232
L71824 72007
L71852 71951
L71908 71923
L72021 71923
L72077 71951
L72105 72007
L72105 72064
L71824 72120
" />
<path d="M72274 71923
L72499 71923
" />
<path d="M72358 71726
L72358 72232
L72386 72289
L72443 72317
L72499 72317
" />
<path d="M72696 72260
L72724 72289
L72696 72317
L72668 72289
L72696 72260
L72696 72317
" />
<path d="M72696 71951
L72724 71979
L72696 72007
L72668 71979
L72696 71951
L72696 72007
" />
</g>
<g style="fill:#000000; fill-opacity:0.0; 
stroke:#000000; stroke-width:39.3701; stroke-opacity:1; 
stroke-linecap:round; stroke-linejoin:round;">
</g>
<g style="fill:#000000; fill-opacity:0.0; 
stroke:#000000; stroke-width:59.0551; stroke-opacity:1; 
stroke-linecap:round; stroke-linejoin:round;">
<path d="M77559 75396
L77559 76577
" />
</g>
<g style="fill:#000000; fill-opacity:0.0; 
stroke:#000000; stroke-width:39.3701; stroke-opacity:1; 
stroke-linecap:round; stroke-linejoin:round;">
</g>
<g style="fill:#000000; fill-opacity:0.0; 
stroke:#000000; stroke-width:59.0551; stroke-opacity:1; 
stroke-linecap:round; stroke-linejoin:round;">
<path d="M102756 75396
L102756 77955
" />
<g >
</g>
<g style="fill:#840000; fill-opacity:0.0; 
stroke:#840000; stroke-width:59.0551; stroke-opacity:1; 
stroke-linecap:round; stroke-linejoin:round;">
</g>
<g style="fill:#840000; fill-opacity:0.0; 
stroke:#840000; stroke-width:0; stroke-opacity:1; 
stroke-linecap:round; stroke-linejoin:round;">
</g>
<g style="fill:#840000; fill-opacity:1.0; 
stroke:#840000; stroke-width:0; stroke-opacity:1; 
stroke-linecap:round; stroke-linejoin:round;">
<path style="fill:#840000; fill-opacity:1.0; 
stroke:#840000; stroke-width:0; stroke-opacity:1; 
stroke-linecap:round; stroke-linejoin:round;fill-rule:evenodd;"
d="M 69303.1,48885.8
69696.9,48885.8
69696.9,50126
69303.1,50126
Z" /> 
<path style="fill:#840000; fill-opacity:1.0; 
stroke:#840000; stroke-width:0; stroke-opacity:1; 
stroke-linecap:round; stroke-linejoin:round;fill-rule:evenodd;"
d="M 69303.1,50874
69696.9,50874
69696.9,52114.2
69303.1,52114.2
Z" /> 
<path style="fill:#840000; fill-opacity:1.0; 
stroke:#840000; stroke-width:0; stroke-opacity:1; 
stroke-linecap:round; stroke-linejoin:round;fill-rule:evenodd;"
d="M 68303.1,48885.8
68696.9,48885.8
68696.9,50126
68303.1,50126
Z" /> 
<path style="fill:#840000; fill-opacity:1.0; 
stroke:#840000; stroke-width:0; stroke-opacity:1; 
stroke-linecap:round; stroke-linejoin:round;fill-rule:evenodd;"
d="M 68303.1,50874
68696.9,50874
68696.9,52114.2
68303.1,52114.2
Z" /> 
<path style="fill:#840000; fill-opacity:1.0; 
stroke:#840000; stroke-width:0; stroke-opacity:1; 
stroke-linecap:round; stroke-linejoin:round;fill-rule:evenodd;"
d="M 67303.1,48885.8
67696.9,48885.8
67696.9,50126
67303.1,50126
Z" /> 
<path style="fill:#840000; fill-opacity:1.0; 
stroke:#840000; stroke-width:0; stroke-opacity:1; 
stroke-linecap:round; stroke-linejoin:round;fill-rule:evenodd;"
d="M 67303.1,50874
67696.9,50874
67696.9,52114.2
67303.1,52114.2
Z" /> 
</g>
<g >
</g>
<g style="fill:#840000; fill-opacity:1.0; 
stroke:#840000; stroke-width:0; stroke-opacity:1; 
stroke-linecap:round; stroke-linejoin:round;">
<path style="fill:#840000; fill-opacity:1.0; 
stroke:#840000; stroke-width:0; stroke-opacity:1; 
stroke-linecap:round; stroke-linejoin:round;fill-rule:evenodd;"
d="M 66015.6,45604.8
66025.1,45606.2
66034.5,45608.6
66043.6,45611.8
66052.3,45616
66060.6,45620.9
66068.3,45626.7
66075.5,45633.2
66082,45640.3
66087.7,45648.1
66092.7,45656.4
66096.8,45665.1
66100.1,45674.2
66102.4,45683.6
66103.9,45693.1
66104.3,45702.8
66104.3,46027.6
66103.9,46037.2
66102.4,46046.8
66100.1,46056.1
66096.8,46065.2
66092.7,46074
66087.7,46082.2
66082,46090
66075.5,46097.2
66068.3,46103.6
66060.6,46109.4
66052.3,46114.4
66043.6,46118.5
66034.5,46121.7
66025.1,46124.1
66015.6,46125.5
66005.9,46126
65494.1,46126
65484.4,46125.5
65474.9,46124.1
65465.5,46121.7
65456.4,46118.5
65447.7,46114.4
65439.4,46109.4
65431.7,46103.6
65424.5,46097.2
65418,46090
65412.3,46082.2
65407.3,46074
65403.2,46065.2
65399.9,46056.1
65397.6,46046.8
65396.1,46037.2
65395.7,46027.6
65395.7,45702.8
65396.1,45693.1
65397.6,45683.6
65399.9,45674.2
65403.2,45665.1
65407.3,45656.4
65412.3,45648.1
65418,45640.3
65424.5,45633.2
65431.7,45626.7
65439.4,45620.9
65447.7,45616
65456.4,45611.8
65465.5,45608.6
65474.9,45606.2
65484.4,45604.8
65494.1,45604.3
66005.9,45604.3
Z" /> 
<path style="fill:#840000; fill-opacity:1.0; 
stroke:#840000; stroke-width:0; stroke-opacity:1; 
stroke-linecap:round; stroke-linejoin:round;fill-rule:evenodd;"
d="M 66015.6,44374.5
66025.1,44375.9
66034.5,44378.3
66043.6,44381.5
66052.3,44385.6
66060.6,44390.6
66068.3,44396.4
66075.5,44402.8
66082,44410
66087.7,44417.8
66092.7,44426
66096.8,44434.8
66100.1,44443.9
66102.4,44453.2
66103.9,44462.8
66104.3,44472.4
66104.3,44797.2
66103.9,44806.9
66102.4,44816.4
66100.1,44825.8
66096.8,44834.9
66092.7,44843.6
66087.7,44851.9
66082,44859.7
66075.5,44866.8
66068.3,44873.3
66060.6,44879.1
66052.3,44884
66043.6,44888.2
66034.5,44891.4
66025.1,44893.8
66015.6,44895.2
66005.9,44895.7
65494.1,44895.7
65484.4,44895.2
65474.9,44893.8
65465.5,44891.4
65456.4,44888.2
65447.7,44884
65439.4,44879.1
65431.7,44873.3
65424.5,44866.8
65418,44859.7
65412.3,44851.9
65407.3,44843.6
65403.2,44834.9
65399.9,44825.8
65397.6,44816.4
65396.1,44806.9
65395.7,44797.2
65395.7,44472.4
65396.1,44462.8
65397.6,44453.2
65399.9,44443.9
65403.2,44434.8
65407.3,44426
65412.3,44417.8
65418,44410
65424.5,44402.8
65431.7,44396.4
65439.4,44390.6
65447.7,44385.6
65456.4,44381.5
65465.5,44378.3
65474.9,44375.9
65484.4,44374.5
65494.1,44374
66005.9,44374
Z" /> 
</g>
<g >
</g>
<g style="fill:#840000; fill-opacity:1.0; 
stroke:#840000; stroke-width:0; stroke-opacity:1; 
stroke-linecap:round; stroke-linejoin:round;">
<path style="fill:#840000; fill-opacity:1.0; 
stroke:#840000; stroke-width:0; stroke-opacity:1; 
stroke-linecap:round; stroke-linejoin:round;fill-rule:evenodd;"
d="M 68208.5,42656
68218,42657.4
68227.4,42659.8
68236.5,42663
68245.2,42667.1
68253.5,42672.1
68261.3,42677.9
68268.4,42684.3
68274.9,42691.5
68280.7,42699.3
68285.6,42707.5
68289.8,42716.3
68293,42725.4
68295.4,42734.7
68296.8,42744.3
68297.2,42753.9
68297.2,43246.1
68296.8,43255.7
68295.4,43265.3
68293,43274.6
68289.8,43283.7
68285.6,43292.5
68280.7,43300.7
68274.9,43308.5
68268.4,43315.7
68261.3,43322.1
68253.5,43327.9
68245.2,43332.9
68236.5,43337
68227.4,43340.2
68218,43342.6
68208.5,43344
68198.8,43344.5
67903.5,43344.5
67893.9,43344
67884.3,43342.6
67875,43340.2
67865.9,43337
67857.1,43332.9
67848.9,43327.9
67841.1,43322.1
67833.9,43315.7
67827.5,43308.5
67821.7,43300.7
67816.7,43292.5
67812.6,43283.7
67809.4,43274.6
67807,43265.3
67805.6,43255.7
67805.1,43246.1
67805.1,42753.9
67805.6,42744.3
67807,42734.7
67809.4,42725.4
67812.6,42716.3
67816.7,42707.5
67821.7,42699.3
67827.5,42691.5
67833.9,42684.3
67841.1,42677.9
67848.9,42672.1
67857.1,42667.1
67865.9,42663
67875,42659.8
67884.3,42657.4
67893.9,42656
67903.5,42655.5
68198.8,42655.5
Z" /> 
<path style="fill:#840000; fill-opacity:1.0; 
stroke:#840000; stroke-width:0; stroke-opacity:1; 
stroke-linecap:round; stroke-linejoin:round;fill-rule:evenodd;"
d="M 67106.1,42656
67115.7,42657.4
67125,42659.8
67134.1,42663
67142.9,42667.1
67151.1,42672.1
67158.9,42677.9
67166.1,42684.3
67172.5,42691.5
67178.3,42699.3
67183.3,42707.5
67187.4,42716.3
67190.6,42725.4
67193,42734.7
67194.4,42744.3
67194.9,42753.9
67194.9,43246.1
67194.4,43255.7
67193,43265.3
67190.6,43274.6
67187.4,43283.7
67183.3,43292.5
67178.3,43300.7
67172.5,43308.5
67166.1,43315.7
67158.9,43322.1
67151.1,43327.9
67142.9,43332.9
67134.1,43337
67125,43340.2
67115.7,43342.6
67106.1,43344
67096.5,43344.5
66801.2,43344.5
66791.5,43344
66782,43342.6
66772.6,43340.2
66763.5,43337
66754.8,43332.9
66746.5,43327.9
66738.7,43322.1
66731.6,43315.7
66725.1,43308.5
66719.3,43300.7
66714.4,43292.5
66710.2,43283.7
66707,43274.6
66704.6,43265.3
66703.2,43255.7
66702.8,43246.1
66702.8,42753.9
66703.2,42744.3
66704.6,42734.7
66707,42725.4
66710.2,42716.3
66714.4,42707.5
66719.3,42699.3
66725.1,42691.5
66731.6,42684.3
66738.7,42677.9
66746.5,42672.1
66754.8,42667.1
66763.5,42663
66772.6,42659.8
66782,42657.4
66791.5,42656
66801.2,42655.5
67096.5,42655.5
Z" /> 
</g>
<g >
</g>
<g style="fill:#840000; fill-opacity:1.0; 
stroke:#840000; stroke-width:0; stroke-opacity:1; 
stroke-linecap:round; stroke-linejoin:round;">
<path style="fill:#840000; fill-opacity:1.0; 
stroke:#840000; stroke-width:0; stroke-opacity:1; 
stroke-linecap:round; stroke-linejoin:round;fill-rule:evenodd;"
d="M 73657.3,42656
73666.8,42657.4
73676.2,42659.8
73685.3,42663
73694,42667.1
73702.3,42672.1
73710.1,42677.9
73717.2,42684.3
73723.7,42691.5
73729.5,42699.3
73734.4,42707.5
73738.6,42716.3
73741.8,42725.4
73744.2,42734.7
73745.6,42744.3
73746.1,42753.9
73746.1,43246.1
73745.6,43255.7
73744.2,43265.3
73741.8,43274.6
73738.6,43283.7
73734.4,43292.5
73729.5,43300.7
73723.7,43308.5
73717.2,43315.7
73710.1,43322.1
73702.3,43327.9
73694,43332.9
73685.3,43337
73676.2,43340.2
73666.8,43342.6
73657.3,43344
73647.6,43344.5
73352.4,43344.5
73342.7,43344
73333.2,43342.6
73323.8,43340.2
73314.7,43337
73306,43332.9
73297.7,43327.9
73289.9,43322.1
73282.8,43315.7
73276.3,43308.5
73270.5,43300.7
73265.6,43292.5
73261.4,43283.7
73258.2,43274.6
73255.8,43265.3
73254.4,43255.7
73253.9,43246.1
73253.9,42753.9
73254.4,42744.3
73255.8,42734.7
73258.2,42725.4
73261.4,42716.3
73265.6,42707.5
73270.5,42699.3
73276.3,42691.5
73282.8,42684.3
73289.9,42677.9
73297.7,42672.1
73306,42667.1
73314.7,42663
73323.8,42659.8
73333.2,42657.4
73342.7,42656
73352.4,42655.5
73647.6,42655.5
Z" /> 
<path style="fill:#840000; fill-opacity:1.0; 
stroke:#840000; stroke-width:0; stroke-opacity:1; 
stroke-linecap:round; stroke-linejoin:round;fill-rule:evenodd;"
d="M 72554.9,42656
72564.5,42657.4
72573.8,42659.8
72582.9,42663
72591.7,42667.1
72600,42672.1
72607.7,42677.9
72614.9,42684.3
72621.4,42691.5
72627.1,42699.3
72632.1,42707.5
72636.2,42716.3
72639.5,42725.4
72641.8,42734.7
72643.2,42744.3
72643.7,42753.9
72643.7,43246.1
72643.2,43255.7
72641.8,43265.3
72639.5,43274.6
72636.2,43283.7
72632.1,43292.5
72627.1,43300.7
72621.4,43308.5
72614.9,43315.7
72607.7,43322.1
72600,43327.9
72591.7,43332.9
72582.9,43337
72573.8,43340.2
72564.5,43342.6
72554.9,43344
72545.3,43344.5
72250,43344.5
72240.4,43344
72230.8,43342.6
72221.4,43340.2
72212.3,43337
72203.6,43332.9
72195.3,43327.9
72187.6,43322.1
72180.4,43315.7
72173.9,43308.5
72168.2,43300.7
72163.2,43292.5
72159.1,43283.7
72155.8,43274.6
72153.5,43265.3
72152,43255.7
72151.6,43246.1
72151.6,42753.9
72152,42744.3
72153.5,42734.7
72155.8,42725.4
72159.1,42716.3
72163.2,42707.5
72168.2,42699.3
72173.9,42691.5
72180.4,42684.3
72187.6,42677.9
72195.3,42672.1
72203.6,42667.1
72212.3,42663
72221.4,42659.8
72230.8,42657.4
72240.4,42656
72250,42655.5
72545.3,42655.5
Z" /> 
</g>
<g >
</g>
<g style="fill:#840000; fill-opacity:1.0; 
stroke:#840000; stroke-width:0; stroke-opacity:1; 
stroke-linecap:round; stroke-linejoin:round;">
<path style="fill:#840000; fill-opacity:1.0; 
stroke:#840000; stroke-width:0; stroke-opacity:1; 
stroke-linecap:round; stroke-linejoin:round;fill-rule:evenodd;"
d="M 68277.4,41406
68286.9,41407.4
68296.3,41409.8
68305.4,41413
68314.1,41417.1
68322.4,41422.1
68330.2,41427.9
68337.3,41434.3
68343.8,41441.5
68349.6,41449.3
68354.5,41457.5
68358.6,41466.3
68361.9,41475.4
68364.3,41484.7
68365.7,41494.3
68366.1,41503.9
68366.1,41996.1
68365.7,42005.7
68364.3,42015.3
68361.9,42024.6
68358.6,42033.7
68354.5,42042.5
68349.6,42050.7
68343.8,42058.5
68337.3,42065.7
68330.2,42072.1
68322.4,42077.9
68314.1,42082.9
68305.4,42087
68296.3,42090.2
68286.9,42092.6
68277.4,42094
68267.7,42094.5
67952.8,42094.5
67943.1,42094
67933.6,42092.6
67924.2,42090.2
67915.1,42087
67906.4,42082.9
67898.1,42077.9
67890.3,42072.1
67883.2,42065.7
67876.7,42058.5
67870.9,42050.7
67866,42042.5
67861.8,42033.7
67858.6,42024.6
67856.2,42015.3
67854.8,42005.7
67854.3,41996.1
67854.3,41503.9
67854.8,41494.3
67856.2,41484.7
67858.6,41475.4
67861.8,41466.3
67866,41457.5
67870.9,41449.3
67876.7,41441.5
67883.2,41434.3
67890.3,41427.9
67898.1,41422.1
67906.4,41417.1
67915.1,41413
67924.2,41409.8
67933.6,41407.4
67943.1,41406
67952.8,41405.5
68267.7,41405.5
Z" /> 
<path style="fill:#840000; fill-opacity:1.0; 
stroke:#840000; stroke-width:0; stroke-opacity:1; 
stroke-linecap:round; stroke-linejoin:round;fill-rule:evenodd;"
d="M 67056.9,41406
67066.4,41407.4
67075.8,41409.8
67084.9,41413
67093.6,41417.1
67101.9,41422.1
67109.7,41427.9
67116.8,41434.3
67123.3,41441.5
67129.1,41449.3
67134,41457.5
67138.2,41466.3
67141.4,41475.4
67143.8,41484.7
67145.2,41494.3
67145.7,41503.9
67145.7,41996.1
67145.2,42005.7
67143.8,42015.3
67141.4,42024.6
67138.2,42033.7
67134,42042.5
67129.1,42050.7
67123.3,42058.5
67116.8,42065.7
67109.7,42072.1
67101.9,42077.9
67093.6,42082.9
67084.9,42087
67075.8,42090.2
67066.4,42092.6
67056.9,42094
67047.2,42094.5
66732.3,42094.5
66722.6,42094
66713.1,42092.6
66703.7,42090.2
66694.6,42087
66685.9,42082.9
66677.6,42077.9
66669.8,42072.1
66662.7,42065.7
66656.2,42058.5
66650.4,42050.7
66645.5,42042.5
66641.4,42033.7
66638.1,42024.6
66635.7,42015.3
66634.3,42005.7
66633.9,41996.1
66633.9,41503.9
66634.3,41494.3
66635.7,41484.7
66638.1,41475.4
66641.4,41466.3
66645.5,41457.5
66650.4,41449.3
66656.2,41441.5
66662.7,41434.3
66669.8,41427.9
66677.6,41422.1
66685.9,41417.1
66694.6,41413
66703.7,41409.8
66713.1,41407.4
66722.6,41406
66732.3,41405.5
67047.2,41405.5
Z" /> 
</g>
<g >
</g>
<g style="fill:#840000; fill-opacity:1.0; 
stroke:#840000; stroke-width:0; stroke-opacity:1; 
stroke-linecap:round; stroke-linejoin:round;">
<path style="fill:#840000; fill-opacity:1.0; 
stroke:#840000; stroke-width:0; stroke-opacity:1; 
stroke-linecap:round; stroke-linejoin:round;fill-rule:evenodd;"
d="M 72556.9,41406
72566.4,41407.4
72575.8,41409.8
72584.9,41413
72593.6,41417.1
72601.9,41422.1
72609.7,41427.9
72616.8,41434.3
72623.3,41441.5
72629.1,41449.3
72634,41457.5
72638.2,41466.3
72641.4,41475.4
72643.8,41484.7
72645.2,41494.3
72645.7,41503.9
72645.7,41996.1
72645.2,42005.7
72643.8,42015.3
72641.4,42024.6
72638.2,42033.7
72634,42042.5
72629.1,42050.7
72623.3,42058.5
72616.8,42065.7
72609.7,42072.1
72601.9,42077.9
72593.6,42082.9
72584.9,42087
72575.8,42090.2
72566.4,42092.6
72556.9,42094
72547.2,42094.5
72232.3,42094.5
72222.6,42094
72213.1,42092.6
72203.7,42090.2
72194.6,42087
72185.9,42082.9
72177.6,42077.9
72169.8,42072.1
72162.7,42065.7
72156.2,42058.5
72150.4,42050.7
72145.5,42042.5
72141.4,42033.7
72138.1,42024.6
72135.7,42015.3
72134.3,42005.7
72133.9,41996.1
72133.9,41503.9
72134.3,41494.3
72135.7,41484.7
72138.1,41475.4
72141.4,41466.3
72145.5,41457.5
72150.4,41449.3
72156.2,41441.5
72162.7,41434.3
72169.8,41427.9
72177.6,41422.1
72185.9,41417.1
72194.6,41413
72203.7,41409.8
72213.1,41407.4
72222.6,41406
72232.3,41405.5
72547.2,41405.5
Z" /> 
<path style="fill:#840000; fill-opacity:1.0; 
stroke:#840000; stroke-width:0; stroke-opacity:1; 
stroke-linecap:round; stroke-linejoin:round;fill-rule:evenodd;"
d="M 73777.4,41406
73786.9,41407.4
73796.3,41409.8
73805.4,41413
73814.1,41417.1
73822.4,41422.1
73830.2,41427.9
73837.3,41434.3
73843.8,41441.5
73849.6,41449.3
73854.5,41457.5
73858.6,41466.3
73861.9,41475.4
73864.3,41484.7
73865.7,41494.3
73866.1,41503.9
73866.1,41996.1
73865.7,42005.7
73864.3,42015.3
73861.9,42024.6
73858.6,42033.7
73854.5,42042.5
73849.6,42050.7
73843.8,42058.5
73837.3,42065.7
73830.2,42072.1
73822.4,42077.9
73814.1,42082.9
73805.4,42087
73796.3,42090.2
73786.9,42092.6
73777.4,42094
73767.7,42094.5
73452.8,42094.5
73443.1,42094
73433.6,42092.6
73424.2,42090.2
73415.1,42087
73406.4,42082.9
73398.1,42077.9
73390.3,42072.1
73383.2,42065.7
73376.7,42058.5
73370.9,42050.7
73366,42042.5
73361.8,42033.7
73358.6,42024.6
73356.2,42015.3
73354.8,42005.7
73354.3,41996.1
73354.3,41503.9
73354.8,41494.3
73356.2,41484.7
73358.6,41475.4
73361.8,41466.3
73366,41457.5
73370.9,41449.3
73376.7,41441.5
73383.2,41434.3
73390.3,41427.9
73398.1,41422.1
73406.4,41417.1
73415.1,41413
73424.2,41409.8
73433.6,41407.4
73443.1,41406
73452.8,41405.5
73767.7,41405.5
Z" /> 
</g>
<g >
</g>
<g style="fill:#840000; fill-opacity:1.0; 
stroke:#840000; stroke-width:0; stroke-opacity:1; 
stroke-linecap:round; stroke-linejoin:round;">
<path style="fill:#840000; fill-opacity:1.0; 
stroke:#840000; stroke-width:0; stroke-opacity:1; 
stroke-linecap:round; stroke-linejoin:round;fill-rule:evenodd;"
d="M 66005.7,46494.6
66015.3,46496
66024.6,46498.3
66033.7,46501.6
66042.5,46505.7
66050.7,46510.7
66058.5,46516.4
66065.7,46522.9
66072.1,46530.1
66077.9,46537.8
66082.9,46546.1
66087,46554.9
66090.2,46563.9
66092.6,46573.3
66094,46582.9
66094.5,46592.5
66094.5,46907.5
66094,46917.1
66092.6,46926.7
66090.2,46936.1
66087,46945.1
66082.9,46953.9
66077.9,46962.2
66072.1,46969.9
66065.7,46977.1
66058.5,46983.6
66050.7,46989.3
66042.5,46994.3
66033.7,46998.4
66024.6,47001.7
66015.3,47004
66005.7,47005.4
65996.1,47005.9
65503.9,47005.9
65494.3,47005.4
65484.7,47004
65475.4,47001.7
65466.3,46998.4
65457.5,46994.3
65449.3,46989.3
65441.5,46983.6
65434.3,46977.1
65427.9,46969.9
65422.1,46962.2
65417.1,46953.9
65413,46945.1
65409.8,46936.1
65407.4,46926.7
65406,46917.1
65405.5,46907.5
65405.5,46592.5
65406,46582.9
65407.4,46573.3
65409.8,46563.9
65413,46554.9
65417.1,46546.1
65422.1,46537.8
65427.9,46530.1
65434.3,46522.9
65441.5,46516.4
65449.3,46510.7
65457.5,46505.7
65466.3,46501.6
65475.4,46498.3
65484.7,46496
65494.3,46494.6
65503.9,46494.1
65996.1,46494.1
Z" /> 
<path style="fill:#840000; fill-opacity:1.0; 
stroke:#840000; stroke-width:0; stroke-opacity:1; 
stroke-linecap:round; stroke-linejoin:round;fill-rule:evenodd;"
d="M 66005.7,47715
66015.3,47716.5
66024.6,47718.8
66033.7,47722.1
66042.5,47726.2
66050.7,47731.2
66058.5,47736.9
66065.7,47743.4
66072.1,47750.6
66077.9,47758.3
66082.9,47766.6
66087,47775.3
66090.2,47784.4
66092.6,47793.8
66094,47803.3
66094.5,47813
66094.5,48128
66094,48137.6
66092.6,48147.2
66090.2,48156.5
66087,48165.6
66082.9,48174.3
66077.9,48182.6
66072.1,48190.4
66065.7,48197.6
66058.5,48204
66050.7,48209.8
66042.5,48214.8
66033.7,48218.9
66024.6,48222.1
66015.3,48224.5
66005.7,48225.9
65996.1,48226.4
65503.9,48226.4
65494.3,48225.9
65484.7,48224.5
65475.4,48222.1
65466.3,48218.9
65457.5,48214.8
65449.3,48209.8
65441.5,48204
65434.3,48197.6
65427.9,48190.4
65422.1,48182.6
65417.1,48174.3
65413,48165.6
65409.8,48156.5
65407.4,48147.2
65406,48137.6
65405.5,48128
65405.5,47813
65406,47803.3
65407.4,47793.8
65409.8,47784.4
65413,47775.3
65417.1,47766.6
65422.1,47758.3
65427.9,47750.6
65434.3,47743.4
65441.5,47736.9
65449.3,47731.2
65457.5,47726.2
65466.3,47722.1
65475.4,47718.8
65484.7,47716.5
65494.3,47715
65503.9,47714.6
65996.1,47714.6
Z" /> 
</g>
<g >
</g>
<g style="fill:#840000; fill-opacity:1.0; 
stroke:#840000; stroke-width:0; stroke-opacity:1; 
stroke-linecap:round; stroke-linejoin:round;">
<path style="fill:#840000; fill-opacity:1.0; 
stroke:#840000; stroke-width:0; stroke-opacity:1; 
stroke-linecap:round; stroke-linejoin:round;fill-rule:evenodd;"
d="M 72755.7,45024.1
72765.3,45025.5
72774.6,45027.9
72783.7,45031.1
72792.5,45035.2
72800.7,45040.2
72808.5,45046
72815.7,45052.4
72822.1,45059.6
72827.9,45067.4
72832.9,45075.7
72837,45084.4
72840.2,45093.5
72842.6,45102.8
72844,45112.4
72844.5,45122
72844.5,45437
72844,45446.7
72842.6,45456.2
72840.2,45465.6
72837,45474.7
72832.9,45483.4
72827.9,45491.7
72822.1,45499.4
72815.7,45506.6
72808.5,45513.1
72800.7,45518.8
72792.5,45523.8
72783.7,45527.9
72774.6,45531.2
72765.3,45533.5
72755.7,45535
72746.1,45535.4
72253.9,45535.4
72244.3,45535
72234.7,45533.5
72225.4,45531.2
72216.3,45527.9
72207.5,45523.8
72199.3,45518.8
72191.5,45513.1
72184.3,45506.6
72177.9,45499.4
72172.1,45491.7
72167.1,45483.4
72163,45474.7
72159.8,45465.6
72157.4,45456.2
72156,45446.7
72155.5,45437
72155.5,45122
72156,45112.4
72157.4,45102.8
72159.8,45093.5
72163,45084.4
72167.1,45075.7
72172.1,45067.4
72177.9,45059.6
72184.3,45052.4
72191.5,45046
72199.3,45040.2
72207.5,45035.2
72216.3,45031.1
72225.4,45027.9
72234.7,45025.5
72244.3,45024.1
72253.9,45023.6
72746.1,45023.6
Z" /> 
<path style="fill:#840000; fill-opacity:1.0; 
stroke:#840000; stroke-width:0; stroke-opacity:1; 
stroke-linecap:round; stroke-linejoin:round;fill-rule:evenodd;"
d="M 72755.7,46244.6
72765.3,46246
72774.6,46248.3
72783.7,46251.6
72792.5,46255.7
72800.7,46260.7
72808.5,46266.4
72815.7,46272.9
72822.1,46280.1
72827.9,46287.8
72832.9,46296.1
72837,46304.9
72840.2,46313.9
72842.6,46323.3
72844,46332.9
72844.5,46342.5
72844.5,46657.5
72844,46667.1
72842.6,46676.7
72840.2,46686.1
72837,46695.1
72832.9,46703.9
72827.9,46712.2
72822.1,46719.9
72815.7,46727.1
72808.5,46733.6
72800.7,46739.3
72792.5,46744.3
72783.7,46748.4
72774.6,46751.7
72765.3,46754
72755.7,46755.4
72746.1,46755.9
72253.9,46755.9
72244.3,46755.4
72234.7,46754
72225.4,46751.7
72216.3,46748.4
72207.5,46744.3
72199.3,46739.3
72191.5,46733.6
72184.3,46727.1
72177.9,46719.9
72172.1,46712.2
72167.1,46703.9
72163,46695.1
72159.8,46686.1
72157.4,46676.7
72156,46667.1
72155.5,46657.5
72155.5,46342.5
72156,46332.9
72157.4,46323.3
72159.8,46313.9
72163,46304.9
72167.1,46296.1
72172.1,46287.8
72177.9,46280.1
72184.3,46272.9
72191.5,46266.4
72199.3,46260.7
72207.5,46255.7
72216.3,46251.6
72225.4,46248.3
72234.7,46246
72244.3,46244.6
72253.9,46244.1
72746.1,46244.1
Z" /> 
</g>
<g >
</g>
<g style="fill:#840000; fill-opacity:1.0; 
stroke:#840000; stroke-width:0; stroke-opacity:1; 
stroke-linecap:round; stroke-linejoin:round;">
<path style="fill:#840000; fill-opacity:1.0; 
stroke:#840000; stroke-width:0; stroke-opacity:1; 
stroke-linecap:round; stroke-linejoin:round;fill-rule:evenodd;"
d="M 73346.5,49748
73346.5,48252
74133.9,48252
74133.9,49748
Z" /> 
<path style="fill:#840000; fill-opacity:1.0; 
stroke:#840000; stroke-width:0; stroke-opacity:1; 
stroke-linecap:round; stroke-linejoin:round;fill-rule:evenodd;"
d="M 70866.1,49295.3
70866.1,48704.7
71653.5,48704.7
71653.5,49295.3
Z" /> 
<path style="fill:#840000; fill-opacity:1.0; 
stroke:#840000; stroke-width:0; stroke-opacity:1; 
stroke-linecap:round; stroke-linejoin:round;fill-rule:evenodd;"
d="M 70866.1,50200.8
70866.1,49610.2
71653.5,49610.2
71653.5,50200.8
Z" /> 
<path style="fill:#840000; fill-opacity:1.0; 
stroke:#840000; stroke-width:0; stroke-opacity:1; 
stroke-linecap:round; stroke-linejoin:round;fill-rule:evenodd;"
d="M 70866.1,48389.8
70866.1,47799.2
71653.5,47799.2
71653.5,48389.8
Z" /> 
</g>
<g >
</g>
<g style="fill:#840000; fill-opacity:1.0; 
stroke:#840000; stroke-width:0; stroke-opacity:1; 
stroke-linecap:round; stroke-linejoin:round;">
<path style="fill:#840000; fill-opacity:1.0; 
stroke:#840000; stroke-width:0; stroke-opacity:1; 
stroke-linecap:round; stroke-linejoin:round;fill-rule:evenodd;"
d="M 67381.8,44195.2
67387.5,44196
67393.1,44197.4
67398.6,44199.4
67403.8,44201.9
67408.8,44204.8
67413.4,44208.3
67417.7,44212.2
67421.6,44216.5
67425.1,44221.1
67428.1,44226.1
67430.5,44231.3
67432.5,44236.8
67433.9,44242.4
67434.8,44248.1
67435,44253.9
67435,44372
67434.8,44377.8
67433.9,44383.6
67432.5,44389.2
67430.5,44394.6
67428.1,44399.9
67425.1,44404.9
67421.6,44409.5
67417.7,44413.8
67413.4,44417.7
67408.8,44421.2
67403.8,44424.1
67398.6,44426.6
67393.1,44428.6
67387.5,44430
67381.8,44430.8
67376,44431.1
66726.4,44431.1
66720.6,44430.8
66714.9,44430
66709.2,44428.6
66703.8,44426.6
66698.5,44424.1
66693.6,44421.2
66688.9,44417.7
66684.6,44413.8
66680.7,44409.5
66677.3,44404.9
66674.3,44399.9
66671.8,44394.6
66669.9,44389.2
66668.5,44383.6
66667.6,44377.8
66667.3,44372
66667.3,44253.9
66667.6,44248.1
66668.5,44242.4
66669.9,44236.8
66671.8,44231.3
66674.3,44226.1
66677.3,44221.1
66680.7,44216.5
66684.6,44212.2
66688.9,44208.3
66693.6,44204.8
66698.5,44201.9
66703.8,44199.4
66709.2,44197.4
66714.9,44196
66720.6,44195.2
66726.4,44194.9
67376,44194.9
Z" /> 
<path style="fill:#840000; fill-opacity:1.0; 
stroke:#840000; stroke-width:0; stroke-opacity:1; 
stroke-linecap:round; stroke-linejoin:round;fill-rule:evenodd;"
d="M 67381.8,44695.2
67387.5,44696
67393.1,44697.4
67398.6,44699.4
67403.8,44701.9
67408.8,44704.8
67413.4,44708.3
67417.7,44712.2
67421.6,44716.5
67425.1,44721.1
67428.1,44726.1
67430.5,44731.3
67432.5,44736.8
67433.9,44742.4
67434.8,44748.1
67435,44753.9
67435,44872
67434.8,44877.8
67433.9,44883.6
67432.5,44889.2
67430.5,44894.6
67428.1,44899.9
67425.1,44904.9
67421.6,44909.5
67417.7,44913.8
67413.4,44917.7
67408.8,44921.2
67403.8,44924.1
67398.6,44926.6
67393.1,44928.6
67387.5,44930
67381.8,44930.8
67376,44931.1
66726.4,44931.1
66720.6,44930.8
66714.9,44930
66709.2,44928.6
66703.8,44926.6
66698.5,44924.1
66693.6,44921.2
66688.9,44917.7
66684.6,44913.8
66680.7,44909.5
66677.3,44904.9
66674.3,44899.9
66671.8,44894.6
66669.9,44889.2
66668.5,44883.6
66667.6,44877.8
66667.3,44872
66667.3,44753.9
66667.6,44748.1
66668.5,44742.4
66669.9,44736.8
66671.8,44731.3
66674.3,44726.1
66677.3,44721.1
66680.7,44716.5
66684.6,44712.2
66688.9,44708.3
66693.6,44704.8
66698.5,44701.9
66703.8,44699.4
66709.2,44697.4
66714.9,44696
66720.6,44695.2
66726.4,44694.9
67376,44694.9
Z" /> 
<path style="fill:#840000; fill-opacity:1.0; 
stroke:#840000; stroke-width:0; stroke-opacity:1; 
stroke-linecap:round; stroke-linejoin:round;fill-rule:evenodd;"
d="M 67381.8,45195.2
67387.5,45196
67393.1,45197.4
67398.6,45199.4
67403.8,45201.9
67408.8,45204.8
67413.4,45208.3
67417.7,45212.2
67421.6,45216.5
67425.1,45221.1
67428.1,45226.1
67430.5,45231.3
67432.5,45236.8
67433.9,45242.4
67434.8,45248.1
67435,45253.9
67435,45372
67434.8,45377.8
67433.9,45383.6
67432.5,45389.2
67430.5,45394.6
67428.1,45399.9
67425.1,45404.9
67421.6,45409.5
67417.7,45413.8
67413.4,45417.7
67408.8,45421.2
67403.8,45424.1
67398.6,45426.6
67393.1,45428.6
67387.5,45430
67381.8,45430.8
67376,45431.1
66726.4,45431.1
66720.6,45430.8
66714.9,45430
66709.2,45428.6
66703.8,45426.6
66698.5,45424.1
66693.6,45421.2
66688.9,45417.7
66684.6,45413.8
66680.7,45409.5
66677.3,45404.9
66674.3,45399.9
66671.8,45394.6
66669.9,45389.2
66668.5,45383.6
66667.6,45377.8
66667.3,45372
66667.3,45253.9
66667.6,45248.1
66668.5,45242.4
66669.9,45236.8
66671.8,45231.3
66674.3,45226.1
66677.3,45221.1
66680.7,45216.5
66684.6,45212.2
66688.9,45208.3
66693.6,45204.8
66698.5,45201.9
66703.8,45199.4
66709.2,45197.4
66714.9,45196
66720.6,45195.2
66726.4,45194.9
67376,45194.9
Z" /> 
<path style="fill:#840000; fill-opacity:1.0; 
stroke:#840000; stroke-width:0; stroke-opacity:1; 
stroke-linecap:round; stroke-linejoin:round;fill-rule:evenodd;"
d="M 67381.8,45695.2
67387.5,45696
67393.1,45697.4
67398.6,45699.4
67403.8,45701.9
67408.8,45704.8
67413.4,45708.3
67417.7,45712.2
67421.6,45716.5
67425.1,45721.1
67428.1,45726.1
67430.5,45731.3
67432.5,45736.8
67433.9,45742.4
67434.8,45748.1
67435,45753.9
67435,45872
67434.8,45877.8
67433.9,45883.6
67432.5,45889.2
67430.5,45894.6
67428.1,45899.9
67425.1,45904.9
67421.6,45909.5
67417.7,45913.8
67413.4,45917.7
67408.8,45921.2
67403.8,45924.1
67398.6,45926.6
67393.1,45928.6
67387.5,45930
67381.8,45930.8
67376,45931.1
66726.4,45931.1
66720.6,45930.8
66714.9,45930
66709.2,45928.6
66703.8,45926.6
66698.5,45924.1
66693.6,45921.2
66688.9,45917.7
66684.6,45913.8
66680.7,45909.5
66677.3,45904.9
66674.3,45899.9
66671.8,45894.6
66669.9,45889.2
66668.5,45883.6
66667.6,45877.8
66667.3,45872
66667.3,45753.9
66667.6,45748.1
66668.5,45742.4
66669.9,45736.8
66671.8,45731.3
66674.3,45726.1
66677.3,45721.1
66680.7,45716.5
66684.6,45712.2
66688.9,45708.3
66693.6,45704.8
66698.5,45701.9
66703.8,45699.4
66709.2,45697.4
66714.9,45696
66720.6,45695.2
66726.4,45694.9
67376,45694.9
Z" /> 
<path style="fill:#840000; fill-opacity:1.0; 
stroke:#840000; stroke-width:0; stroke-opacity:1; 
stroke-linecap:round; stroke-linejoin:round;fill-rule:evenodd;"
d="M 67381.8,46195.2
67387.5,46196
67393.1,46197.4
67398.6,46199.4
67403.8,46201.9
67408.8,46204.8
67413.4,46208.3
67417.7,46212.2
67421.6,46216.5
67425.1,46221.1
67428.1,46226.1
67430.5,46231.3
67432.5,46236.8
67433.9,46242.4
67434.8,46248.1
67435,46253.9
67435,46372
67434.8,46377.8
67433.9,46383.6
67432.5,46389.2
67430.5,46394.6
67428.1,46399.9
67425.1,46404.9
67421.6,46409.5
67417.7,46413.8
67413.4,46417.7
67408.8,46421.2
67403.8,46424.1
67398.6,46426.6
67393.1,46428.6
67387.5,46430
67381.8,46430.8
67376,46431.1
66726.4,46431.1
66720.6,46430.8
66714.9,46430
66709.2,46428.6
66703.8,46426.6
66698.5,46424.1
66693.6,46421.2
66688.9,46417.7
66684.6,46413.8
66680.7,46409.5
66677.3,46404.9
66674.3,46399.9
66671.8,46394.6
66669.9,46389.2
66668.5,46383.6
66667.6,46377.8
66667.3,46372
66667.3,46253.9
66667.6,46248.1
66668.5,46242.4
66669.9,46236.8
66671.8,46231.3
66674.3,46226.1
66677.3,46221.1
66680.7,46216.5
66684.6,46212.2
66688.9,46208.3
66693.6,46204.8
66698.5,46201.9
66703.8,46199.4
66709.2,46197.4
66714.9,46196
66720.6,46195.2
66726.4,46194.9
67376,46194.9
Z" /> 
<path style="fill:#840000; fill-opacity:1.0; 
stroke:#840000; stroke-width:0; stroke-opacity:1; 
stroke-linecap:round; stroke-linejoin:round;fill-rule:evenodd;"
d="M 67381.8,46695.2
67387.5,46696
67393.1,46697.4
67398.6,46699.4
67403.8,46701.9
67408.8,46704.8
67413.4,46708.3
67417.7,46712.2
67421.6,46716.5
67425.1,46721.1
67428.1,46726.1
67430.5,46731.3
67432.5,46736.8
67433.9,46742.4
67434.8,46748.1
67435,46753.9
67435,46872
67434.8,46877.8
67433.9,46883.6
67432.5,46889.2
67430.5,46894.6
67428.1,46899.9
67425.1,46904.9
67421.6,46909.5
67417.7,46913.8
67413.4,46917.7
67408.8,46921.2
67403.8,46924.1
67398.6,46926.6
67393.1,46928.6
67387.5,46930
67381.8,46930.8
67376,46931.1
66726.4,46931.1
66720.6,46930.8
66714.9,46930
66709.2,46928.6
66703.8,46926.6
66698.5,46924.1
66693.6,46921.2
66688.9,46917.7
66684.6,46913.8
66680.7,46909.5
66677.3,46904.9
66674.3,46899.9
66671.8,46894.6
66669.9,46889.2
66668.5,46883.6
66667.6,46877.8
66667.3,46872
66667.3,46753.9
66667.6,46748.1
66668.5,46742.4
66669.9,46736.8
66671.8,46731.3
66674.3,46726.1
66677.3,46721.1
66680.7,46716.5
66684.6,46712.2
66688.9,46708.3
66693.6,46704.8
66698.5,46701.9
66703.8,46699.4
66709.2,46697.4
66714.9,46696
66720.6,46695.2
66726.4,46694.9
67376,46694.9
Z" /> 
<path style="fill:#840000; fill-opacity:1.0; 
stroke:#840000; stroke-width:0; stroke-opacity:1; 
stroke-linecap:round; stroke-linejoin:round;fill-rule:evenodd;"
d="M 67381.8,47195.2
67387.5,47196
67393.1,47197.4
67398.6,47199.4
67403.8,47201.9
67408.8,47204.8
67413.4,47208.3
67417.7,47212.2
67421.6,47216.5
67425.1,47221.1
67428.1,47226.1
67430.5,47231.3
67432.5,47236.8
67433.9,47242.4
67434.8,47248.1
67435,47253.9
67435,47372
67434.8,47377.8
67433.9,47383.6
67432.5,47389.2
67430.5,47394.6
67428.1,47399.9
67425.1,47404.9
67421.6,47409.5
67417.7,47413.8
67413.4,47417.7
67408.8,47421.2
67403.8,47424.1
67398.6,47426.6
67393.1,47428.6
67387.5,47430
67381.8,47430.8
67376,47431.1
66726.4,47431.1
66720.6,47430.8
66714.9,47430
66709.2,47428.6
66703.8,47426.6
66698.5,47424.1
66693.6,47421.2
66688.9,47417.7
66684.6,47413.8
66680.7,47409.5
66677.3,47404.9
66674.3,47399.9
66671.8,47394.6
66669.9,47389.2
66668.5,47383.6
66667.6,47377.8
66667.3,47372
66667.3,47253.9
66667.6,47248.1
66668.5,47242.4
66669.9,47236.8
66671.8,47231.3
66674.3,47226.1
66677.3,47221.1
66680.7,47216.5
66684.6,47212.2
66688.9,47208.3
66693.6,47204.8
66698.5,47201.9
66703.8,47199.4
66709.2,47197.4
66714.9,47196
66720.6,47195.2
66726.4,47194.9
67376,47194.9
Z" /> 
<path style="fill:#840000; fill-opacity:1.0; 
stroke:#840000; stroke-width:0; stroke-opacity:1; 
stroke-linecap:round; stroke-linejoin:round;fill-rule:evenodd;"
d="M 69330.6,47195.2
69336.3,47196
69341.9,47197.4
69347.4,47199.4
69352.6,47201.9
69357.6,47204.8
69362.3,47208.3
69366.6,47212.2
69370.5,47216.5
69373.9,47221.1
69376.9,47226.1
69379.4,47231.3
69381.3,47236.8
69382.7,47242.4
69383.6,47248.1
69383.9,47253.9
69383.9,47372
69383.6,47377.8
69382.7,47383.6
69381.3,47389.2
69379.4,47394.6
69376.9,47399.9
69373.9,47404.9
69370.5,47409.5
69366.6,47413.8
69362.3,47417.7
69357.6,47421.2
69352.6,47424.1
69347.4,47426.6
69341.9,47428.6
69336.3,47430
69330.6,47430.8
69324.8,47431.1
68675.2,47431.1
68669.4,47430.8
68663.7,47430
68658.1,47428.6
68652.6,47426.6
68647.4,47424.1
68642.4,47421.2
68637.7,47417.7
68633.4,47413.8
68629.5,47409.5
68626.1,47404.9
68623.1,47399.9
68620.6,47394.6
68618.7,47389.2
68617.3,47383.6
68616.4,47377.8
68616.1,47372
68616.1,47253.9
68616.4,47248.1
68617.3,47242.4
68618.7,47236.8
68620.6,47231.3
68623.1,47226.1
68626.1,47221.1
68629.5,47216.5
68633.4,47212.2
68637.7,47208.3
68642.4,47204.8
68647.4,47201.9
68652.6,47199.4
68658.1,47197.4
68663.7,47196
68669.4,47195.2
68675.2,47194.9
69324.8,47194.9
Z" /> 
<path style="fill:#840000; fill-opacity:1.0; 
stroke:#840000; stroke-width:0; stroke-opacity:1; 
stroke-linecap:round; stroke-linejoin:round;fill-rule:evenodd;"
d="M 69330.6,46695.2
69336.3,46696
69341.9,46697.4
69347.4,46699.4
69352.6,46701.9
69357.6,46704.8
69362.3,46708.3
69366.6,46712.2
69370.5,46716.5
69373.9,46721.1
69376.9,46726.1
69379.4,46731.3
69381.3,46736.8
69382.7,46742.4
69383.6,46748.1
69383.9,46753.9
69383.9,46872
69383.6,46877.8
69382.7,46883.6
69381.3,46889.2
69379.4,46894.6
69376.9,46899.9
69373.9,46904.9
69370.5,46909.5
69366.6,46913.8
69362.3,46917.7
69357.6,46921.2
69352.6,46924.1
69347.4,46926.6
69341.9,46928.6
69336.3,46930
69330.6,46930.8
69324.8,46931.1
68675.2,46931.1
68669.4,46930.8
68663.7,46930
68658.1,46928.6
68652.6,46926.6
68647.4,46924.1
68642.4,46921.2
68637.7,46917.7
68633.4,46913.8
68629.5,46909.5
68626.1,46904.9
68623.1,46899.9
68620.6,46894.6
68618.7,46889.2
68617.3,46883.6
68616.4,46877.8
68616.1,46872
68616.1,46753.9
68616.4,46748.1
68617.3,46742.4
68618.7,46736.8
68620.6,46731.3
68623.1,46726.1
68626.1,46721.1
68629.5,46716.5
68633.4,46712.2
68637.7,46708.3
68642.4,46704.8
68647.4,46701.9
68652.6,46699.4
68658.1,46697.4
68663.7,46696
68669.4,46695.2
68675.2,46694.9
69324.8,46694.9
Z" /> 
<path style="fill:#840000; fill-opacity:1.0; 
stroke:#840000; stroke-width:0; stroke-opacity:1; 
stroke-linecap:round; stroke-linejoin:round;fill-rule:evenodd;"
d="M 69330.6,46195.2
69336.3,46196
69341.9,46197.4
69347.4,46199.4
69352.6,46201.9
69357.6,46204.8
69362.3,46208.3
69366.6,46212.2
69370.5,46216.5
69373.9,46221.1
69376.9,46226.1
69379.4,46231.3
69381.3,46236.8
69382.7,46242.4
69383.6,46248.1
69383.9,46253.9
69383.9,46372
69383.6,46377.8
69382.7,46383.6
69381.3,46389.2
69379.4,46394.6
69376.9,46399.9
69373.9,46404.9
69370.5,46409.5
69366.6,46413.8
69362.3,46417.7
69357.6,46421.2
69352.6,46424.1
69347.4,46426.6
69341.9,46428.6
69336.3,46430
69330.6,46430.8
69324.8,46431.1
68675.2,46431.1
68669.4,46430.8
68663.7,46430
68658.1,46428.6
68652.6,46426.6
68647.4,46424.1
68642.4,46421.2
68637.7,46417.7
68633.4,46413.8
68629.5,46409.5
68626.1,46404.9
68623.1,46399.9
68620.6,46394.6
68618.7,46389.2
68617.3,46383.6
68616.4,46377.8
68616.1,46372
68616.1,46253.9
68616.4,46248.1
68617.3,46242.4
68618.7,46236.8
68620.6,46231.3
68623.1,46226.1
68626.1,46221.1
68629.5,46216.5
68633.4,46212.2
68637.7,46208.3
68642.4,46204.8
68647.4,46201.9
68652.6,46199.4
68658.1,46197.4
68663.7,46196
68669.4,46195.2
68675.2,46194.9
69324.8,46194.9
Z" /> 
<path style="fill:#840000; fill-opacity:1.0; 
stroke:#840000; stroke-width:0; stroke-opacity:1; 
stroke-linecap:round; stroke-linejoin:round;fill-rule:evenodd;"
d="M 69330.6,45695.2
69336.3,45696
69341.9,45697.4
69347.4,45699.4
69352.6,45701.9
69357.6,45704.8
69362.3,45708.3
69366.6,45712.2
69370.5,45716.5
69373.9,45721.1
69376.9,45726.1
69379.4,45731.3
69381.3,45736.8
69382.7,45742.4
69383.6,45748.1
69383.9,45753.9
69383.9,45872
69383.6,45877.8
69382.7,45883.6
69381.3,45889.2
69379.4,45894.6
69376.9,45899.9
69373.9,45904.9
69370.5,45909.5
69366.6,45913.8
69362.3,45917.7
69357.6,45921.2
69352.6,45924.1
69347.4,45926.6
69341.9,45928.6
69336.3,45930
69330.6,45930.8
69324.8,45931.1
68675.2,45931.1
68669.4,45930.8
68663.7,45930
68658.1,45928.6
68652.6,45926.6
68647.4,45924.1
68642.4,45921.2
68637.7,45917.7
68633.4,45913.8
68629.5,45909.5
68626.1,45904.9
68623.1,45899.9
68620.6,45894.6
68618.7,45889.2
68617.3,45883.6
68616.4,45877.8
68616.1,45872
68616.1,45753.9
68616.4,45748.1
68617.3,45742.4
68618.7,45736.8
68620.6,45731.3
68623.1,45726.1
68626.1,45721.1
68629.5,45716.5
68633.4,45712.2
68637.7,45708.3
68642.4,45704.8
68647.4,45701.9
68652.6,45699.4
68658.1,45697.4
68663.7,45696
68669.4,45695.2
68675.2,45694.9
69324.8,45694.9
Z" /> 
<path style="fill:#840000; fill-opacity:1.0; 
stroke:#840000; stroke-width:0; stroke-opacity:1; 
stroke-linecap:round; stroke-linejoin:round;fill-rule:evenodd;"
d="M 69330.6,45195.2
69336.3,45196
69341.9,45197.4
69347.4,45199.4
69352.6,45201.9
69357.6,45204.8
69362.3,45208.3
69366.6,45212.2
69370.5,45216.5
69373.9,45221.1
69376.9,45226.1
69379.4,45231.3
69381.3,45236.8
69382.7,45242.4
69383.6,45248.1
69383.9,45253.9
69383.9,45372
69383.6,45377.8
69382.7,45383.6
69381.3,45389.2
69379.4,45394.6
69376.9,45399.9
69373.9,45404.9
69370.5,45409.5
69366.6,45413.8
69362.3,45417.7
69357.6,45421.2
69352.6,45424.1
69347.4,45426.6
69341.9,45428.6
69336.3,45430
69330.6,45430.8
69324.8,45431.1
68675.2,45431.1
68669.4,45430.8
68663.7,45430
68658.1,45428.6
68652.6,45426.6
68647.4,45424.1
68642.4,45421.2
68637.7,45417.7
68633.4,45413.8
68629.5,45409.5
68626.1,45404.9
68623.1,45399.9
68620.6,45394.6
68618.7,45389.2
68617.3,45383.6
68616.4,45377.8
68616.1,45372
68616.1,45253.9
68616.4,45248.1
68617.3,45242.4
68618.7,45236.8
68620.6,45231.3
68623.1,45226.1
68626.1,45221.1
68629.5,45216.5
68633.4,45212.2
68637.7,45208.3
68642.4,45204.8
68647.4,45201.9
68652.6,45199.4
68658.1,45197.4
68663.7,45196
68669.4,45195.2
68675.2,45194.9
69324.8,45194.9
Z" /> 
<path style="fill:#840000; fill-opacity:1.0; 
stroke:#840000; stroke-width:0; stroke-opacity:1; 
stroke-linecap:round; stroke-linejoin:round;fill-rule:evenodd;"
d="M 69330.6,44695.2
69336.3,44696
69341.9,44697.4
69347.4,44699.4
69352.6,44701.9
69357.6,44704.8
69362.3,44708.3
69366.6,44712.2
69370.5,44716.5
69373.9,44721.1
69376.9,44726.1
69379.4,44731.3
69381.3,44736.8
69382.7,44742.4
69383.6,44748.1
69383.9,44753.9
69383.9,44872
69383.6,44877.8
69382.7,44883.6
69381.3,44889.2
69379.4,44894.6
69376.9,44899.9
69373.9,44904.9
69370.5,44909.5
69366.6,44913.8
69362.3,44917.7
69357.6,44921.2
69352.6,44924.1
69347.4,44926.6
69341.9,44928.6
69336.3,44930
69330.6,44930.8
69324.8,44931.1
68675.2,44931.1
68669.4,44930.8
68663.7,44930
68658.1,44928.6
68652.6,44926.6
68647.4,44924.1
68642.4,44921.2
68637.7,44917.7
68633.4,44913.8
68629.5,44909.5
68626.1,44904.9
68623.1,44899.9
68620.6,44894.6
68618.7,44889.2
68617.3,44883.6
68616.4,44877.8
68616.1,44872
68616.1,44753.9
68616.4,44748.1
68617.3,44742.4
68618.7,44736.8
68620.6,44731.3
68623.1,44726.1
68626.1,44721.1
68629.5,44716.5
68633.4,44712.2
68637.7,44708.3
68642.4,44704.8
68647.4,44701.9
68652.6,44699.4
68658.1,44697.4
68663.7,44696
68669.4,44695.2
68675.2,44694.9
69324.8,44694.9
Z" /> 
<path style="fill:#840000; fill-opacity:1.0; 
stroke:#840000; stroke-width:0; stroke-opacity:1; 
stroke-linecap:round; stroke-linejoin:round;fill-rule:evenodd;"
d="M 69330.6,44195.2
69336.3,44196
69341.9,44197.4
69347.4,44199.4
69352.6,44201.9
69357.6,44204.8
69362.3,44208.3
69366.6,44212.2
69370.5,44216.5
69373.9,44221.1
69376.9,44226.1
69379.4,44231.3
69381.3,44236.8
69382.7,44242.4
69383.6,44248.1
69383.9,44253.9
69383.9,44372
69383.6,44377.8
69382.7,44383.6
69381.3,44389.2
69379.4,44394.6
69376.9,44399.9
69373.9,44404.9
69370.5,44409.5
69366.6,44413.8
69362.3,44417.7
69357.6,44421.2
69352.6,44424.1
69347.4,44426.6
69341.9,44428.6
69336.3,44430
69330.6,44430.8
69324.8,44431.1
68675.2,44431.1
68669.4,44430.8
68663.7,44430
68658.1,44428.6
68652.6,44426.6
68647.4,44424.1
68642.4,44421.2
68637.7,44417.7
68633.4,44413.8
68629.5,44409.5
68626.1,44404.9
68623.1,44399.9
68620.6,44394.6
68618.7,44389.2
68617.3,44383.6
68616.4,44377.8
68616.1,44372
68616.1,44253.9
68616.4,44248.1
68617.3,44242.4
68618.7,44236.8
68620.6,44231.3
68623.1,44226.1
68626.1,44221.1
68629.5,44216.5
68633.4,44212.2
68637.7,44208.3
68642.4,44204.8
68647.4,44201.9
68652.6,44199.4
68658.1,44197.4
68663.7,44196
68669.4,44195.2
68675.2,44194.9
69324.8,44194.9
Z" /> 
</g>
<g >
</g>
<g style="fill:#848400; fill-opacity:1.0; 
stroke:#848400; stroke-width:0; stroke-opacity:1; 
stroke-linecap:round; stroke-linejoin:round;">
<path style="fill:#848400; fill-opacity:1.0; 
stroke:#848400; stroke-width:0; stroke-opacity:1; 
stroke-linecap:round; stroke-linejoin:round;fill-rule:evenodd;"
d="M 72334.6,52334.6
71665.4,52334.6
71665.4,51665.4
72334.6,51665.4
Z" /> 
<circle cx="73000" cy="52000" r="334.646" /> 
</g>
<g >
</g>
<g >
</g>
<g style="fill:#840000; fill-opacity:1.0; 
stroke:#840000; stroke-width:0; stroke-opacity:1; 
stroke-linecap:round; stroke-linejoin:round;">
</g>
<g style="fill:#840000; fill-opacity:1.0; 
stroke:#840000; stroke-width:157.48; stroke-opacity:1; 
stroke-linecap:round; stroke-linejoin:round;">
</g>
<g style="fill:#840000; fill-opacity:0.0; 
stroke:#840000; stroke-width:157.48; stroke-opacity:1; 
stroke-linecap:round; stroke-linejoin:round;">
<path d="M73000 52000
L73000 51250
" />
<path d="M73000 51250
L72500 50750
" />
<path d="M71811 48094
L71259 48094
" />
<path d="M72500 48783
L71811 48094
" />
<path d="M72500 50750
L72500 48783
" />
<path d="M67500 52271
L68478 53250
" />
<path d="M67500 51494
L67500 52271
" />
<path d="M73000 52473
L73000 52000
" />
<path d="M72223 53250
L73000 52473
" />
<path d="M68478 53250
L72223 53250
" />
<path d="M68645 43958
L69000 44312
" />
<path d="M64919 48913
L64919 44073
" />
<path d="M67500 51494
L64919 48913
" />
<path d="M65750 44634
L65750 44000
" />
<path d="M65750 44000
L65791 43958
" />
<path d="M65791 43958
L68645 43958
" />
<path d="M65034 43958
L65791 43958
" />
<path d="M66889 42103
L64996 43996
" />
<path d="M66889 41750
L66889 42103
" />
<path d="M64996 43996
L65034 43958
" />
<path d="M64919 44073
L64996 43996
" />
<path d="M71809 41169
L72389 41750
" />
<path d="M67470 41169
L71809 41169
" />
<path d="M66889 41750
L67470 41169
" />
<path d="M72000 52000
L71250 51250
" />
<path d="M71259 51240
L71259 49905
" />
<path d="M71250 51250
L71259 51240
" />
<path d="M69500 47812
L69000 47312
" />
<path d="M69500 49505
L69500 47812
" />
<path d="M67435 44312
L67051 44312
" />
<path d="M68114 50362
L68064 50312
" />
<path d="M69145 50362
L68114 50362
" />
<path d="M69500 50716
L69145 50362
" />
<path d="M69500 51494
L69500 50716
" />
<path d="M70708 49000
L71259 49000
" />
<path d="M69933 49775
L70708 49000
" />
<path d="M69933 51061
L69933 49775
" />
<path d="M69500 51494
L69933 51061
" />
<path d="M68114 50362
L67986 50234
" />
<path d="M67936 44813
L67435 44312
" />
<path d="M67986 44864
L67936 44813
" />
<path d="M67986 50234
L67986 44864
" />
<path d="M66340 44639
L66340 45274
" />
<path d="M66340 45274
L65750 45865
" />
<path d="M66667 44312
L66340 44639
" />
<path d="M67051 44312
L66667 44312
" />
<path d="M65750 46750
L65750 45865
" />
<path d="M68698 46812
L69000 46812
" />
<path d="M68379 47131
L68698 46812
" />
<path d="M68379 49385
L68500 49505
" />
<path d="M68379 47131
L68379 49385
" />
<path d="M67610 50362
L67114 50362
" />
<path d="M68500 51251
L67610 50362
" />
<path d="M68500 51494
L68500 51251
" />
<path d="M67051 50299
L67114 50362
" />
<path d="M67051 47312
L67051 50299
" />
<path d="M67671 46049
L67435 45812
" />
<path d="M67435 45812
L67051 45812
" />
<path d="M67671 49334
L67500 49505
" />
<path d="M67671 46049
L67671 49334
" />
<path d="M66667 45812
L67051 45812
" />
<path d="M66431 46049
L66667 45812
" />
<path d="M66431 47289
L66431 46049
" />
<path d="M65750 47970
L66431 47289
" />
<path d="M66948 42911
L68110 41750
" />
<path d="M66948 43000
L66948 42911
" />
<path d="M69301 44812
L69000 44812
" />
<path d="M69687 44812
L69000 44812
" />
<path d="M71000 43500
L69687 44812
" />
<path d="M70500 43000
L71000 43500
" />
<path d="M68051 43000
L70500 43000
" />
<path d="M70084 45312
L72397 43000
" />
<path d="M69000 45312
L70084 45312
" />
<path d="M73500 41860
L73610 41750
" />
<path d="M73500 43000
L73500 41860
" />
<path d="M69312 45812
L69000 45812
" />
<path d="M71966 45812
L72500 45279
" />
<path d="M69000 45812
L71966 45812
" />
<path d="M72312 46312
L72500 46500
" />
<path d="M69000 46312
L72312 46312
" />
</g>
<g >
</g>
</g>
<g style="fill:#FFFFFF; fill-opacity:0.0; 
stroke:#FFFFFF; stroke-width:157.48; stroke-opacity:1; 
stroke-linecap:round; stroke-linejoin:round;">
</g>
<g style="fill:#FFFFFF; fill-opacity:1.0; 
stroke:#FFFFFF; stroke-width:0; stroke-opacity:1; 
stroke-linecap:round; stroke-linejoin:round;">
<circle cx="72000" cy="52000" r="196.85" /> 
</g>
<g style="fill:#FFFFFF; fill-opacity:1.0; 
stroke:#FFFFFF; stroke-width:39.3701; stroke-opacity:1; 
stroke-linecap:round; stroke-linejoin:round;">
</g>
<g style="fill:#FFFFFF; fill-opacity:1.0; 
stroke:#FFFFFF; stroke-width:0; stroke-opacity:1; 
stroke-linecap:round; stroke-linejoin:round;">
<circle cx="73000" cy="52000" r="196.85" /> 
</g>
<g style="fill:#FFFFFF; fill-opacity:1.0; 
stroke:#FFFFFF; stroke-width:39.3701; stroke-opacity:1; 
stroke-linecap:round; stroke-linejoin:round;">
</g>
<g style="fill:#000000; fill-opacity:1.0; 
stroke:#000000; stroke-width:39.3701; stroke-opacity:1; 
stroke-linecap:round; stroke-linejoin:round;">
</g>
<g style="fill:#C2C200; fill-opacity:1.0; 
stroke:#C2C200; stroke-width:39.3701; stroke-opacity:1; 
stroke-linecap:round; stroke-linejoin:round;">
</g>
<g style="fill:#C2C200; fill-opacity:0.0; 
stroke:#C2C200; stroke-width:19.685; stroke-opacity:1; 
stroke-linecap:round; stroke-linejoin:round;">
<path d="M77500 45250 A7250 7250 0.0 0 0 63000 45250" />
<path d="M77500 55750
L77500 45250
" />
<path d="M76500 54750
L77500 55750
" />
<path d="M75250 56000
L76500 54750
" />
<path d="M74000 54750
L75250 56000
" />
<path d="M72750 56000
L74000 54750
" />
<path d="M71500 54750
L72750 56000
" />
<path d="M70250 56000
L71500 54750
" />
<path d="M69000 54750
L70250 56000
" />
<path d="M67750 56000
L69000 54750
" />
<path d="M66500 54750
L67750 56000
" />
<path d="M65250 56000
L66500 54750
" />
<path d="M64000 54750
L65250 56000
" />
<path d="M63000 55750
L64000 54750
" />
<path d="M63000 45250
L63000 55750
" />
<g >
</g>
<g >
</g>
<g >
</g>
<g >
</g>
<g >
</g>
<g >
</g>
<g >
</g>
<g >
</g>
<g >
</g>
<g >
</g>
<g >
</g>
<g >
</g>
</g> 
</svg>
